<svg width="1440" height="116" viewBox="0 0 1440 116" fill="none" xmlns="http://www.w3.org/2000/svg">
<rect x="1440" y="116" width="1440" height="116" transform="rotate(180 1440 116)" fill="url(#paint0_linear_1820_2275)"/>
<mask id="mask0_1820_2275" style="mask-type:alpha" maskUnits="userSpaceOnUse" x="0" y="0" width="1440" height="116">
<rect x="1440" y="116" width="1440" height="116" transform="rotate(180 1440 116)" fill="#4E4E4E"/>
</mask>
<g mask="url(#mask0_1820_2275)">
<g opacity="0.8" filter="url(#filter0_f_1820_2275)">
<ellipse rx="789.657" ry="162.337" transform="matrix(-0.983367 0.181631 -0.898835 -0.438287 719.937 103.66)" fill="#5896CC"/>
</g>
<g opacity="0.6" filter="url(#filter1_f_1820_2275)">
<ellipse cx="732.776" cy="175.879" rx="307.786" ry="67.7916" fill="#95E6C9"/>
</g>
<g opacity="0.9" filter="url(#filter2_f_1820_2275)">
<ellipse rx="283.57" ry="115.732" transform="matrix(0.998923 0.0464066 0.458424 -0.888734 39.3187 -2.10436)" fill="#C65398"/>
</g>
<g opacity="0.8" filter="url(#filter3_f_1820_2275)">
<ellipse rx="217.465" ry="73.3543" transform="matrix(0.998923 0.0464066 0.458424 -0.888734 1340.61 149.481)" fill="#FDA68A"/>
</g>
<g opacity="0.5">
<path opacity="0.8" d="M1520.25 393.571C1520.25 393.571 1325.98 398.181 1264.76 332.589C1232.44 297.952 1253.23 263.64 1222.6 228.088C1180.94 179.739 1121.98 181.255 1062.88 145.485C976.123 92.9851 997.944 27.5086 908.513 -22.2148C720.562 -126.716 594.07 -50.4882 451.14 -163.582C267.051 -309.244 139.912 -276.953 139.912 -276.953" stroke="url(#paint1_linear_1820_2275)"/>
<path opacity="0.8" d="M1342.84 730.93C1342.84 730.93 1148.57 735.54 1087.35 669.948C1055.02 635.311 1075.82 600.999 1045.19 565.447C1003.53 517.099 944.573 518.615 885.465 482.845C798.711 430.344 820.532 364.868 731.101 315.145C543.149 210.644 416.657 286.871 273.728 173.777C89.6391 28.1158 -37.5 60.4066 -37.5 60.4066" stroke="url(#paint2_linear_1820_2275)"/>
<path opacity="0.8" d="M1514.68 404.366C1514.68 404.366 1320.42 408.975 1259.2 343.384C1226.87 308.747 1247.67 274.435 1217.03 238.883C1175.37 190.534 1116.42 192.05 1057.31 156.28C970.557 103.78 992.378 38.3035 902.947 -11.4199C714.995 -115.921 588.503 -39.6933 445.574 -152.787C261.485 -298.449 134.346 -266.158 134.346 -266.158" stroke="url(#paint3_linear_1820_2275)"/>
<path opacity="0.8" d="M1509.12 415.699C1509.12 415.699 1314.85 420.313 1253.63 354.669C1221.3 320.004 1242.1 285.665 1211.47 250.084C1169.81 201.697 1110.85 203.214 1051.75 167.415C964.992 114.873 986.813 49.3443 897.382 -0.418887C709.43 -105.003 582.938 -28.7149 440.009 -141.899C255.92 -287.677 128.781 -255.361 128.781 -255.361" stroke="url(#paint4_linear_1820_2275)"/>
<path opacity="0.8" d="M1502.86 426.496C1502.86 426.496 1308.69 431.106 1247.5 365.515C1215.19 330.878 1235.97 296.566 1205.36 261.014C1163.72 212.665 1104.79 214.181 1045.71 178.411C959.004 125.911 980.814 60.4343 891.428 10.711C703.571 -93.7898 577.143 -17.5625 434.286 -130.656C250.29 -276.318 123.214 -244.027 123.214 -244.027" stroke="url(#paint5_linear_1820_2275)"/>
<path opacity="0.8" d="M1497.29 437.291C1497.29 437.291 1303.02 441.901 1241.81 376.309C1209.48 341.673 1230.27 307.36 1199.64 271.809C1157.98 223.46 1099.03 224.976 1039.92 189.206C953.164 136.706 974.985 71.2293 885.554 21.5059C697.603 -82.9949 571.11 -6.76755 428.181 -119.861C244.092 -265.523 116.953 -233.232 116.953 -233.232" stroke="url(#paint6_linear_1820_2275)"/>
<path opacity="0.8" d="M1491.73 448.086C1491.73 448.086 1297.46 452.696 1236.24 387.104C1203.91 352.468 1224.71 318.155 1194.08 282.604C1152.42 234.255 1093.46 235.771 1034.35 200.001C947.598 147.501 969.42 82.0242 879.989 32.3008C692.037 -72.2 565.545 4.02738 422.616 -109.066C238.527 -254.728 111.387 -222.437 111.387 -222.437" stroke="url(#paint7_linear_1820_2275)"/>
<path opacity="0.8" d="M1486.16 458.883C1486.16 458.883 1291.89 463.493 1230.67 397.901C1198.34 363.265 1219.14 328.952 1188.51 293.4C1146.85 245.052 1087.89 246.568 1028.79 210.798C942.032 158.298 963.853 92.8211 874.422 43.0977C686.47 -61.4031 559.978 14.8243 417.049 -98.2694C232.96 -243.931 105.821 -211.64 105.821 -211.64" stroke="url(#paint8_linear_1820_2275)"/>
<path opacity="0.8" d="M1479.9 469.68C1479.9 469.68 1285.73 474.29 1224.54 408.698C1192.23 374.061 1213.01 339.749 1182.4 304.197C1140.76 255.849 1081.83 257.365 1022.75 221.595C936.045 169.094 957.855 103.618 868.469 53.8945C680.612 -50.6062 554.184 25.6211 411.326 -87.4725C227.33 -233.134 100.255 -200.843 100.255 -200.843" stroke="url(#paint9_linear_1820_2275)"/>
<path opacity="0.8" d="M1474.33 480.473C1474.33 480.473 1280.07 485.083 1218.85 419.491C1186.52 384.854 1207.31 350.542 1176.68 314.99C1135.02 266.642 1076.07 268.158 1016.96 232.388C930.205 179.887 952.026 114.411 862.595 64.6875C674.643 -39.8132 548.151 36.4141 405.222 -76.6795C221.133 -222.341 93.9939 -190.05 93.9939 -190.05" stroke="url(#paint10_linear_1820_2275)"/>
<path opacity="0.8" d="M1468.77 491.809C1468.77 491.809 1274.5 496.422 1213.28 430.778C1180.95 396.114 1201.75 361.774 1171.12 326.194C1129.46 277.806 1070.5 279.324 1011.39 243.525C924.638 190.983 946.46 125.454 857.029 75.6905C669.077 -28.8939 542.585 47.3944 399.656 -65.7898C215.567 -211.568 88.4275 -179.251 88.4275 -179.251" stroke="url(#paint11_linear_1820_2275)"/>
<path opacity="0.8" d="M1463.2 502.606C1463.2 502.606 1268.93 507.216 1207.71 441.624C1175.39 406.987 1196.18 372.675 1165.55 337.123C1123.89 288.775 1064.94 290.291 1005.83 254.52C919.074 202.02 940.895 136.544 851.464 86.8203C663.512 -17.6804 537.02 58.5469 394.091 -54.5467C210.002 -200.208 82.8625 -167.918 82.8625 -167.918" stroke="url(#paint12_linear_1820_2275)"/>
<path opacity="0.8" d="M1457.63 513.401C1457.63 513.401 1263.37 518.011 1202.15 452.419C1169.82 417.782 1190.62 383.47 1159.98 347.918C1118.32 299.57 1059.37 301.085 1000.26 265.315C913.507 212.815 935.328 147.339 845.897 97.6152C657.946 -6.8855 531.453 69.3418 388.524 -43.7518C204.435 -189.413 77.2961 -157.123 77.2961 -157.123" stroke="url(#paint13_linear_1820_2275)"/>
<path opacity="0.8" d="M1451.37 524.196C1451.37 524.196 1257.2 528.806 1196.02 463.214C1163.7 428.577 1184.49 394.265 1153.87 358.713C1112.23 310.364 1053.31 311.88 994.23 276.11C907.52 223.61 929.33 158.134 839.944 108.41C652.087 3.90942 525.659 80.1368 382.802 -32.9569C198.805 -178.619 71.7303 -146.328 71.7303 -146.328" stroke="url(#paint14_linear_1820_2275)"/>
<path opacity="0.8" d="M1445.81 534.992C1445.81 534.992 1251.54 539.602 1190.32 474.011C1157.99 439.374 1178.79 405.062 1148.16 369.51C1106.5 321.161 1047.54 322.677 988.434 286.907C901.68 234.407 923.501 168.93 834.07 119.207C646.118 14.7063 519.626 90.9336 376.697 -22.16C192.608 -167.822 65.469 -135.531 65.469 -135.531" stroke="url(#paint15_linear_1820_2275)"/>
<path opacity="0.8" d="M1440.24 545.787C1440.24 545.787 1245.97 550.397 1184.75 484.806C1152.43 450.169 1173.22 415.857 1142.59 380.305C1100.93 331.956 1041.98 333.472 982.867 297.702C896.114 245.202 917.935 179.725 828.504 130.002C640.552 25.5012 514.06 101.729 371.131 -11.3651C187.042 -157.027 59.9026 -124.736 59.9026 -124.736" stroke="url(#paint16_linear_1820_2275)"/>
<path opacity="0.8" d="M1434.67 556.582C1434.67 556.582 1240.41 561.192 1179.19 495.6C1146.86 460.964 1167.66 426.651 1137.02 391.1C1095.37 342.751 1036.41 344.267 977.301 308.497C890.548 255.997 912.369 190.52 822.938 140.797C634.986 36.2961 508.494 112.523 365.565 -0.570163C181.476 -146.232 54.3369 -113.941 54.3369 -113.941" stroke="url(#paint17_linear_1820_2275)"/>
<path opacity="0.8" d="M1429.11 567.918C1429.11 567.918 1234.84 572.528 1173.62 506.936C1141.3 472.3 1162.09 437.987 1131.46 402.436C1089.8 354.087 1030.84 355.603 971.736 319.833C884.982 267.333 906.803 201.856 817.372 152.133C629.421 47.6321 502.928 123.859 359.999 10.7658C175.91 -134.896 48.7712 -102.605 48.7712 -102.605" stroke="url(#paint18_linear_1820_2275)"/>
<path opacity="0.8" d="M1422.85 578.713C1422.85 578.713 1228.68 583.323 1167.49 517.731C1135.18 483.095 1155.96 448.782 1125.35 413.231C1083.71 364.882 1024.78 366.398 965.704 330.628C878.994 278.128 900.804 212.651 811.419 162.928C623.561 58.427 497.133 134.654 354.276 21.5607C170.28 -124.101 43.2047 -91.8102 43.2047 -91.8102" stroke="url(#paint19_linear_1820_2275)"/>
<path opacity="0.8" d="M1417.28 589.508C1417.28 589.508 1223.02 594.118 1161.8 528.526C1129.47 493.89 1150.26 459.577 1119.63 424.025C1077.97 375.677 1019.02 377.193 959.909 341.423C873.155 288.923 894.976 223.446 805.545 173.723C617.593 69.2219 491.101 145.449 348.172 32.3556C164.083 -113.306 36.9441 -81.0152 36.9441 -81.0152" stroke="url(#paint20_linear_1820_2275)"/>
<path opacity="0.8" d="M1411.72 600.305C1411.72 600.305 1217.45 604.915 1156.23 539.323C1123.9 504.686 1144.7 470.374 1114.07 434.822C1072.41 386.474 1013.45 387.99 954.342 352.22C867.589 299.719 889.41 234.243 799.979 184.52C612.027 80.0188 485.535 156.246 342.606 43.1525C158.517 -102.509 31.3777 -70.2184 31.3777 -70.2184" stroke="url(#paint21_linear_1820_2275)"/>
<path opacity="0.8" d="M1406.15 611.1C1406.15 611.1 1211.88 615.71 1150.66 550.118C1118.34 515.481 1139.13 481.169 1108.5 445.617C1066.84 397.269 1007.88 398.785 948.777 363.015C862.023 310.514 883.844 245.038 794.413 195.314C606.461 90.8137 479.969 167.041 337.04 53.9474C152.951 -91.7142 25.812 -59.4235 25.812 -59.4235" stroke="url(#paint22_linear_1820_2275)"/>
<path opacity="0.8" d="M1399.89 621.895C1399.89 621.895 1205.72 626.505 1144.53 560.913C1112.22 526.276 1133.01 491.964 1102.39 456.412C1060.75 408.064 1001.82 409.58 942.746 373.81C856.036 321.309 877.846 255.833 788.46 206.109C600.603 101.609 474.174 177.836 331.317 64.7423C147.321 -80.9193 20.2462 -48.6285 20.2462 -48.6285" stroke="url(#paint23_linear_1820_2275)"/>
<path opacity="0.8" d="M1394.32 632.692C1394.32 632.692 1200.06 637.302 1138.84 571.71C1106.51 537.073 1127.3 502.761 1096.67 467.209C1055.01 418.861 996.057 420.376 936.949 384.606C850.195 332.106 872.016 266.63 782.585 216.906C594.634 112.406 468.141 188.633 325.212 75.5392C141.123 -70.1224 13.9841 -37.8317 13.9841 -37.8317" stroke="url(#paint24_linear_1820_2275)"/>
<path opacity="0.8" d="M1388.76 644.026C1388.76 644.026 1194.49 648.636 1133.27 583.044C1100.94 548.407 1121.74 514.095 1091.11 478.543C1049.45 430.195 990.491 431.71 931.383 395.94C844.629 343.44 866.451 277.964 777.02 228.24C589.068 123.739 462.576 199.967 319.647 86.8732C135.558 -58.7885 8.41843 -26.4977 8.41843 -26.4977" stroke="url(#paint25_linear_1820_2275)"/>
<path opacity="0.8" d="M1383.19 654.821C1383.19 654.821 1188.92 659.431 1127.7 593.839C1095.38 559.202 1116.17 524.89 1085.54 489.338C1043.88 440.989 984.925 442.505 925.817 406.735C839.064 354.235 860.885 288.759 771.454 239.035C583.502 134.534 457.01 210.762 314.081 97.6681C129.992 -47.9935 2.85275 -15.7027 2.85275 -15.7027" stroke="url(#paint26_linear_1820_2275)"/>
<path opacity="0.8" d="M1377.62 665.617C1377.62 665.617 1183.36 670.227 1122.14 604.636C1089.81 569.999 1110.61 535.687 1079.97 500.135C1038.31 451.786 979.359 453.302 920.251 417.532C833.497 365.032 855.318 299.555 765.888 249.832C577.936 145.331 451.444 221.559 308.514 108.465C124.425 -37.1967 -2.71365 -4.90587 -2.71365 -4.90587" stroke="url(#paint27_linear_1820_2275)"/>
<path opacity="0.8" d="M1371.36 676.412C1371.36 676.412 1177.2 681.022 1116.01 615.431C1083.69 580.794 1104.48 546.482 1073.86 510.93C1032.23 462.581 973.299 464.097 914.221 428.327C827.511 375.827 849.321 310.35 759.935 260.627C572.078 156.126 445.65 232.354 302.793 119.26C118.796 -26.4017 -8.27869 5.88905 -8.27869 5.88905" stroke="url(#paint28_linear_1820_2275)"/>
<path opacity="0.8" d="M1365.8 687.207C1365.8 687.207 1171.53 691.817 1110.31 626.225C1077.98 591.589 1098.78 557.276 1068.15 521.725C1026.49 473.376 967.532 474.892 908.424 439.122C821.67 386.622 843.491 321.145 754.06 271.422C566.109 166.921 439.616 243.148 296.687 130.055C112.598 -15.6068 -14.5408 16.684 -14.5408 16.684" stroke="url(#paint29_linear_1820_2275)"/>
<path opacity="0.8" d="M1360.23 698.004C1360.23 698.004 1165.97 702.614 1104.75 637.022C1072.42 602.386 1093.21 568.073 1062.58 532.522C1020.92 484.173 961.966 485.689 902.858 449.919C816.105 397.419 837.926 331.942 748.495 282.219C560.543 177.718 434.051 253.945 291.122 140.852C107.033 -4.80995 -20.1065 27.4808 -20.1065 27.4808" stroke="url(#paint30_linear_1820_2275)"/>
<path opacity="0.8" d="M1354.67 708.799C1354.67 708.799 1160.4 713.409 1099.18 647.817C1066.85 613.181 1087.65 578.868 1057.02 543.317C1015.36 494.968 956.4 496.484 897.292 460.714C810.539 408.214 832.36 342.737 742.929 293.014C554.977 188.513 428.485 264.74 285.556 151.647C101.467 5.98498 -25.6722 38.2758 -25.6722 38.2758" stroke="url(#paint31_linear_1820_2275)"/>
<path opacity="0.8" d="M1349.1 720.133C1349.1 720.133 1154.83 724.743 1093.61 659.151C1061.29 624.515 1082.08 590.202 1051.45 554.65C1009.79 506.302 950.834 507.818 891.726 472.048C804.972 419.548 826.794 354.071 737.363 304.348C549.411 199.847 422.919 276.074 279.99 162.981C95.9006 17.319 -31.2386 49.6098 -31.2386 49.6098" stroke="url(#paint32_linear_1820_2275)"/>
</g>
</g>
<defs>
<filter id="filter0_f_1820_2275" x="-524.317" y="-510.479" width="2488.51" height="1228.28" filterUnits="userSpaceOnUse" color-interpolation-filters="sRGB">
<feFlood flood-opacity="0" result="BackgroundImageFix"/>
<feBlend mode="normal" in="SourceGraphic" in2="BackgroundImageFix" result="shape"/>
<feGaussianBlur stdDeviation="227" result="effect1_foregroundBlur_1820_2275"/>
</filter>
<filter id="filter1_f_1820_2275" x="-161.01" y="-477.913" width="1787.57" height="1307.58" filterUnits="userSpaceOnUse" color-interpolation-filters="sRGB">
<feFlood flood-opacity="0" result="BackgroundImageFix"/>
<feBlend mode="normal" in="SourceGraphic" in2="BackgroundImageFix" result="shape"/>
<feGaussianBlur stdDeviation="293" result="effect1_foregroundBlur_1820_2275"/>
</filter>
<filter id="filter2_f_1820_2275" x="-834.923" y="-691.809" width="1748.48" height="1379.41" filterUnits="userSpaceOnUse" color-interpolation-filters="sRGB">
<feFlood flood-opacity="0" result="BackgroundImageFix"/>
<feBlend mode="normal" in="SourceGraphic" in2="BackgroundImageFix" result="shape"/>
<feGaussianBlur stdDeviation="293" result="effect1_foregroundBlur_1820_2275"/>
</filter>
<filter id="filter3_f_1820_2275" x="659.009" y="-378.247" width="1363.2" height="1055.46" filterUnits="userSpaceOnUse" color-interpolation-filters="sRGB">
<feFlood flood-opacity="0" result="BackgroundImageFix"/>
<feBlend mode="normal" in="SourceGraphic" in2="BackgroundImageFix" result="shape"/>
<feGaussianBlur stdDeviation="230.875" result="effect1_foregroundBlur_1820_2275"/>
</filter>
<linearGradient id="paint0_linear_1820_2275" x1="1440" y1="116" x2="1510.01" y2="489.072" gradientUnits="userSpaceOnUse">
<stop stop-color="#1E4466"/>
<stop offset="1" stop-color="#3B5C7A"/>
</linearGradient>
<linearGradient id="paint1_linear_1820_2275" x1="830.081" y1="393.641" x2="830.081" y2="-280" gradientUnits="userSpaceOnUse">
<stop offset="0.09375" stop-color="#246F8F"/>
<stop offset="0.375" stop-color="#4A8CC7"/>
<stop offset="0.635417" stop-color="#F7AA65"/>
<stop offset="0.947917" stop-color="#BC51F1"/>
</linearGradient>
<linearGradient id="paint2_linear_1820_2275" x1="652.669" y1="731" x2="652.669" y2="57.3598" gradientUnits="userSpaceOnUse">
<stop offset="0.09375" stop-color="#246F8F"/>
<stop offset="0.375" stop-color="#4A8CC7"/>
<stop offset="0.635417" stop-color="#F7AA65"/>
<stop offset="0.947917" stop-color="#BC51F1"/>
</linearGradient>
<linearGradient id="paint3_linear_1820_2275" x1="824.515" y1="404.436" x2="824.515" y2="-269.205" gradientUnits="userSpaceOnUse">
<stop offset="0.09375" stop-color="#246F8F"/>
<stop offset="0.375" stop-color="#4A8CC7"/>
<stop offset="0.635417" stop-color="#F7AA65"/>
<stop offset="0.947917" stop-color="#BC51F1"/>
</linearGradient>
<linearGradient id="paint4_linear_1820_2275" x1="818.95" y1="415.77" x2="818.95" y2="-258.41" gradientUnits="userSpaceOnUse">
<stop offset="0.09375" stop-color="#246F8F"/>
<stop offset="0.375" stop-color="#4A8CC7"/>
<stop offset="0.635417" stop-color="#F7AA65"/>
<stop offset="0.947917" stop-color="#BC51F1"/>
</linearGradient>
<linearGradient id="paint5_linear_1820_2275" x1="813.035" y1="426.566" x2="813.035" y2="-247.074" gradientUnits="userSpaceOnUse">
<stop offset="0.09375" stop-color="#246F8F"/>
<stop offset="0.375" stop-color="#4A8CC7"/>
<stop offset="0.635417" stop-color="#F7AA65"/>
<stop offset="0.947917" stop-color="#BC51F1"/>
</linearGradient>
<linearGradient id="paint6_linear_1820_2275" x1="807.122" y1="437.361" x2="807.122" y2="-236.279" gradientUnits="userSpaceOnUse">
<stop offset="0.09375" stop-color="#246F8F"/>
<stop offset="0.375" stop-color="#4A8CC7"/>
<stop offset="0.635417" stop-color="#F7AA65"/>
<stop offset="0.947917" stop-color="#BC51F1"/>
</linearGradient>
<linearGradient id="paint7_linear_1820_2275" x1="801.556" y1="448.156" x2="801.556" y2="-225.484" gradientUnits="userSpaceOnUse">
<stop offset="0.09375" stop-color="#246F8F"/>
<stop offset="0.375" stop-color="#4A8CC7"/>
<stop offset="0.635417" stop-color="#F7AA65"/>
<stop offset="0.947917" stop-color="#BC51F1"/>
</linearGradient>
<linearGradient id="paint8_linear_1820_2275" x1="795.99" y1="458.953" x2="795.99" y2="-214.687" gradientUnits="userSpaceOnUse">
<stop offset="0.09375" stop-color="#246F8F"/>
<stop offset="0.375" stop-color="#4A8CC7"/>
<stop offset="0.635417" stop-color="#F7AA65"/>
<stop offset="0.947917" stop-color="#BC51F1"/>
</linearGradient>
<linearGradient id="paint9_linear_1820_2275" x1="790.076" y1="469.75" x2="790.076" y2="-203.89" gradientUnits="userSpaceOnUse">
<stop offset="0.09375" stop-color="#246F8F"/>
<stop offset="0.375" stop-color="#4A8CC7"/>
<stop offset="0.635417" stop-color="#F7AA65"/>
<stop offset="0.947917" stop-color="#BC51F1"/>
</linearGradient>
<linearGradient id="paint10_linear_1820_2275" x1="784.163" y1="480.543" x2="784.163" y2="-193.097" gradientUnits="userSpaceOnUse">
<stop offset="0.09375" stop-color="#246F8F"/>
<stop offset="0.375" stop-color="#4A8CC7"/>
<stop offset="0.635417" stop-color="#F7AA65"/>
<stop offset="0.947917" stop-color="#BC51F1"/>
</linearGradient>
<linearGradient id="paint11_linear_1820_2275" x1="778.596" y1="491.879" x2="778.596" y2="-182.301" gradientUnits="userSpaceOnUse">
<stop offset="0.09375" stop-color="#246F8F"/>
<stop offset="0.375" stop-color="#4A8CC7"/>
<stop offset="0.635417" stop-color="#F7AA65"/>
<stop offset="0.947917" stop-color="#BC51F1"/>
</linearGradient>
<linearGradient id="paint12_linear_1820_2275" x1="773.031" y1="502.676" x2="773.031" y2="-170.964" gradientUnits="userSpaceOnUse">
<stop offset="0.09375" stop-color="#246F8F"/>
<stop offset="0.375" stop-color="#4A8CC7"/>
<stop offset="0.635417" stop-color="#F7AA65"/>
<stop offset="0.947917" stop-color="#BC51F1"/>
</linearGradient>
<linearGradient id="paint13_linear_1820_2275" x1="767.465" y1="513.471" x2="767.465" y2="-160.169" gradientUnits="userSpaceOnUse">
<stop offset="0.09375" stop-color="#246F8F"/>
<stop offset="0.375" stop-color="#4A8CC7"/>
<stop offset="0.635417" stop-color="#F7AA65"/>
<stop offset="0.947917" stop-color="#BC51F1"/>
</linearGradient>
<linearGradient id="paint14_linear_1820_2275" x1="761.551" y1="524.266" x2="761.551" y2="-149.375" gradientUnits="userSpaceOnUse">
<stop offset="0.09375" stop-color="#246F8F"/>
<stop offset="0.375" stop-color="#4A8CC7"/>
<stop offset="0.635417" stop-color="#F7AA65"/>
<stop offset="0.947917" stop-color="#BC51F1"/>
</linearGradient>
<linearGradient id="paint15_linear_1820_2275" x1="755.638" y1="535.063" x2="755.638" y2="-138.578" gradientUnits="userSpaceOnUse">
<stop offset="0.09375" stop-color="#246F8F"/>
<stop offset="0.375" stop-color="#4A8CC7"/>
<stop offset="0.635417" stop-color="#F7AA65"/>
<stop offset="0.947917" stop-color="#BC51F1"/>
</linearGradient>
<linearGradient id="paint16_linear_1820_2275" x1="750.071" y1="545.857" x2="750.071" y2="-127.783" gradientUnits="userSpaceOnUse">
<stop offset="0.09375" stop-color="#246F8F"/>
<stop offset="0.375" stop-color="#4A8CC7"/>
<stop offset="0.635417" stop-color="#F7AA65"/>
<stop offset="0.947917" stop-color="#BC51F1"/>
</linearGradient>
<linearGradient id="paint17_linear_1820_2275" x1="744.506" y1="556.652" x2="744.506" y2="-116.988" gradientUnits="userSpaceOnUse">
<stop offset="0.09375" stop-color="#246F8F"/>
<stop offset="0.375" stop-color="#4A8CC7"/>
<stop offset="0.635417" stop-color="#F7AA65"/>
<stop offset="0.947917" stop-color="#BC51F1"/>
</linearGradient>
<linearGradient id="paint18_linear_1820_2275" x1="738.94" y1="567.988" x2="738.94" y2="-105.652" gradientUnits="userSpaceOnUse">
<stop offset="0.09375" stop-color="#246F8F"/>
<stop offset="0.375" stop-color="#4A8CC7"/>
<stop offset="0.635417" stop-color="#F7AA65"/>
<stop offset="0.947917" stop-color="#BC51F1"/>
</linearGradient>
<linearGradient id="paint19_linear_1820_2275" x1="733.026" y1="578.783" x2="733.026" y2="-94.857" gradientUnits="userSpaceOnUse">
<stop offset="0.09375" stop-color="#246F8F"/>
<stop offset="0.375" stop-color="#4A8CC7"/>
<stop offset="0.635417" stop-color="#F7AA65"/>
<stop offset="0.947917" stop-color="#BC51F1"/>
</linearGradient>
<linearGradient id="paint20_linear_1820_2275" x1="727.113" y1="589.578" x2="727.113" y2="-84.0621" gradientUnits="userSpaceOnUse">
<stop offset="0.09375" stop-color="#246F8F"/>
<stop offset="0.375" stop-color="#4A8CC7"/>
<stop offset="0.635417" stop-color="#F7AA65"/>
<stop offset="0.947917" stop-color="#BC51F1"/>
</linearGradient>
<linearGradient id="paint21_linear_1820_2275" x1="721.547" y1="600.375" x2="721.547" y2="-73.2652" gradientUnits="userSpaceOnUse">
<stop offset="0.09375" stop-color="#246F8F"/>
<stop offset="0.375" stop-color="#4A8CC7"/>
<stop offset="0.635417" stop-color="#F7AA65"/>
<stop offset="0.947917" stop-color="#BC51F1"/>
</linearGradient>
<linearGradient id="paint22_linear_1820_2275" x1="715.981" y1="611.17" x2="715.981" y2="-62.4703" gradientUnits="userSpaceOnUse">
<stop offset="0.09375" stop-color="#246F8F"/>
<stop offset="0.375" stop-color="#4A8CC7"/>
<stop offset="0.635417" stop-color="#F7AA65"/>
<stop offset="0.947917" stop-color="#BC51F1"/>
</linearGradient>
<linearGradient id="paint23_linear_1820_2275" x1="710.067" y1="621.965" x2="710.067" y2="-51.6754" gradientUnits="userSpaceOnUse">
<stop offset="0.09375" stop-color="#246F8F"/>
<stop offset="0.375" stop-color="#4A8CC7"/>
<stop offset="0.635417" stop-color="#F7AA65"/>
<stop offset="0.947917" stop-color="#BC51F1"/>
</linearGradient>
<linearGradient id="paint24_linear_1820_2275" x1="704.153" y1="632.762" x2="704.153" y2="-40.8785" gradientUnits="userSpaceOnUse">
<stop offset="0.09375" stop-color="#246F8F"/>
<stop offset="0.375" stop-color="#4A8CC7"/>
<stop offset="0.635417" stop-color="#F7AA65"/>
<stop offset="0.947917" stop-color="#BC51F1"/>
</linearGradient>
<linearGradient id="paint25_linear_1820_2275" x1="698.587" y1="644.096" x2="698.587" y2="-29.5445" gradientUnits="userSpaceOnUse">
<stop offset="0.09375" stop-color="#246F8F"/>
<stop offset="0.375" stop-color="#4A8CC7"/>
<stop offset="0.635417" stop-color="#F7AA65"/>
<stop offset="0.947917" stop-color="#BC51F1"/>
</linearGradient>
<linearGradient id="paint26_linear_1820_2275" x1="693.022" y1="654.891" x2="693.022" y2="-18.7496" gradientUnits="userSpaceOnUse">
<stop offset="0.09375" stop-color="#246F8F"/>
<stop offset="0.375" stop-color="#4A8CC7"/>
<stop offset="0.635417" stop-color="#F7AA65"/>
<stop offset="0.947917" stop-color="#BC51F1"/>
</linearGradient>
<linearGradient id="paint27_linear_1820_2275" x1="687.455" y1="665.688" x2="687.455" y2="-7.9527" gradientUnits="userSpaceOnUse">
<stop offset="0.09375" stop-color="#246F8F"/>
<stop offset="0.375" stop-color="#4A8CC7"/>
<stop offset="0.635417" stop-color="#F7AA65"/>
<stop offset="0.947917" stop-color="#BC51F1"/>
</linearGradient>
<linearGradient id="paint28_linear_1820_2275" x1="681.542" y1="676.482" x2="681.542" y2="2.84222" gradientUnits="userSpaceOnUse">
<stop offset="0.09375" stop-color="#246F8F"/>
<stop offset="0.375" stop-color="#4A8CC7"/>
<stop offset="0.635417" stop-color="#F7AA65"/>
<stop offset="0.947917" stop-color="#BC51F1"/>
</linearGradient>
<linearGradient id="paint29_linear_1820_2275" x1="675.628" y1="687.277" x2="675.628" y2="13.6371" gradientUnits="userSpaceOnUse">
<stop offset="0.09375" stop-color="#246F8F"/>
<stop offset="0.375" stop-color="#4A8CC7"/>
<stop offset="0.635417" stop-color="#F7AA65"/>
<stop offset="0.947917" stop-color="#BC51F1"/>
</linearGradient>
<linearGradient id="paint30_linear_1820_2275" x1="670.062" y1="698.074" x2="670.062" y2="24.434" gradientUnits="userSpaceOnUse">
<stop offset="0.09375" stop-color="#246F8F"/>
<stop offset="0.375" stop-color="#4A8CC7"/>
<stop offset="0.635417" stop-color="#F7AA65"/>
<stop offset="0.947917" stop-color="#BC51F1"/>
</linearGradient>
<linearGradient id="paint31_linear_1820_2275" x1="664.497" y1="708.869" x2="664.497" y2="35.2289" gradientUnits="userSpaceOnUse">
<stop offset="0.09375" stop-color="#246F8F"/>
<stop offset="0.375" stop-color="#4A8CC7"/>
<stop offset="0.635417" stop-color="#F7AA65"/>
<stop offset="0.947917" stop-color="#BC51F1"/>
</linearGradient>
<linearGradient id="paint32_linear_1820_2275" x1="658.93" y1="720.203" x2="658.93" y2="46.5629" gradientUnits="userSpaceOnUse">
<stop offset="0.09375" stop-color="#246F8F"/>
<stop offset="0.375" stop-color="#4A8CC7"/>
<stop offset="0.635417" stop-color="#F7AA65"/>
<stop offset="0.947917" stop-color="#BC51F1"/>
</linearGradient>
</defs>
</svg>
