<svg width="1440" height="1542" viewBox="0 0 1440 1542" fill="none" xmlns="http://www.w3.org/2000/svg">
<path opacity="0.8" d="M-483 691.021C-483 691.021 -174.345 681.581 -77.0766 815.906C-25.7127 886.838 -58.7557 957.106 -10.085 1029.91C56.1044 1128.93 149.776 1125.82 243.688 1199.07C381.525 1306.59 346.855 1440.68 488.945 1542.51C787.569 1756.51 988.543 1600.41 1215.63 1832.01C1508.12 2130.31 1710.12 2064.18 1710.12 2064.18" stroke="url(#paint0_linear_1820_2202)"/>
<path opacity="0.8" d="M-201.122 0.143388C-201.122 0.143388 107.533 -9.29727 204.801 125.028C256.165 195.96 223.122 266.228 271.793 339.034C337.982 438.047 431.653 434.943 525.566 508.196C663.403 615.711 628.733 749.8 770.823 851.628C1069.45 1065.63 1270.42 909.529 1497.51 1141.13C1790 1439.43 1992 1373.3 1992 1373.3" stroke="url(#paint1_linear_1820_2202)"/>
<path opacity="0.8" d="M-474.157 668.913C-474.157 668.913 -165.501 659.472 -68.2333 793.797C-16.8695 864.73 -49.9124 934.998 -1.24176 1007.8C64.9477 1106.82 158.619 1103.71 252.531 1176.97C390.368 1284.48 355.698 1418.57 497.789 1520.4C796.412 1734.4 997.387 1578.3 1224.48 1809.9C1516.96 2108.2 1718.97 2042.07 1718.97 2042.07" stroke="url(#paint2_linear_1820_2202)"/>
<path opacity="0.8" d="M-465.313 645.699C-465.313 645.699 -156.658 636.251 -59.3901 770.684C-8.0262 841.673 -41.0691 911.997 7.6015 984.862C73.791 1083.95 167.462 1080.85 261.375 1154.16C399.211 1261.76 364.541 1395.96 506.632 1497.87C805.255 1712.04 1006.23 1555.81 1233.32 1787.6C1525.81 2086.14 1727.81 2019.96 1727.81 2019.96" stroke="url(#paint3_linear_1820_2202)"/>
<path opacity="0.8" d="M-455.365 623.592C-455.365 623.592 -146.865 614.151 -49.6459 748.476C1.69208 819.408 -31.3342 889.676 17.3119 962.483C83.468 1061.5 177.092 1058.39 270.957 1131.64C408.724 1239.16 374.072 1373.25 516.091 1475.08C814.564 1689.08 1015.44 1532.98 1242.41 1764.58C1534.75 2062.88 1736.65 1996.75 1736.65 1996.75" stroke="url(#paint4_linear_1820_2202)"/>
<path opacity="0.8" d="M-446.521 601.483C-446.521 601.483 -137.866 592.043 -40.5981 726.368C10.7658 797.3 -22.2771 867.568 26.3935 940.374C92.583 1039.39 186.254 1036.28 280.167 1109.54C418.003 1217.05 383.333 1351.14 525.424 1452.97C824.047 1666.97 1025.02 1510.87 1252.11 1742.47C1544.6 2040.77 1746.6 1974.64 1746.6 1974.64" stroke="url(#paint5_linear_1820_2202)"/>
<path opacity="0.8" d="M-437.678 579.376C-437.678 579.376 -129.023 569.935 -31.7548 704.26C19.6091 775.193 -13.4339 845.461 35.2368 918.267C101.426 1017.28 195.097 1014.18 289.01 1087.43C426.847 1194.94 392.177 1329.03 534.267 1430.86C832.89 1644.87 1033.87 1488.76 1260.96 1720.37C1553.44 2018.67 1755.44 1952.54 1755.44 1952.54" stroke="url(#paint6_linear_1820_2202)"/>
<path opacity="0.8" d="M-428.835 557.267C-428.835 557.267 -120.18 547.827 -22.9115 682.152C28.4523 753.084 -4.59062 823.352 44.08 896.158C110.269 995.171 203.941 992.067 297.853 1065.32C435.69 1172.84 401.02 1306.92 543.11 1408.75C841.734 1622.76 1042.71 1466.65 1269.8 1698.26C1562.28 1996.56 1764.29 1930.43 1764.29 1930.43" stroke="url(#paint7_linear_1820_2202)"/>
<path opacity="0.8" d="M-418.887 535.159C-418.887 535.159 -110.387 525.718 -13.1679 660.043C38.1701 730.976 5.14382 801.244 53.7899 874.05C119.946 973.063 213.57 969.958 307.435 1043.21C445.202 1150.73 410.55 1284.82 552.569 1386.64C851.042 1600.65 1051.92 1444.54 1278.89 1676.15C1571.23 1974.45 1773.13 1908.32 1773.13 1908.32" stroke="url(#paint8_linear_1820_2202)"/>
<path opacity="0.8" d="M-410.043 513.052C-410.043 513.052 -101.388 503.611 -4.12004 637.936C47.2438 708.868 14.2009 779.136 62.8715 851.943C129.061 950.955 222.732 947.851 316.645 1021.1C454.481 1128.62 419.811 1262.71 561.902 1364.54C860.525 1578.54 1061.5 1422.44 1288.59 1654.04C1581.08 1952.34 1783.08 1886.21 1783.08 1886.21" stroke="url(#paint9_linear_1820_2202)"/>
<path opacity="0.8" d="M-401.2 489.838C-401.2 489.838 -92.5448 480.39 4.72322 614.822C56.0871 685.812 23.0441 756.136 71.7148 829C137.904 928.092 231.575 924.986 325.488 998.298C463.325 1105.9 428.655 1240.1 570.745 1342.01C869.368 1556.18 1070.34 1399.95 1297.43 1631.74C1589.92 1930.28 1791.92 1864.1 1791.92 1864.1" stroke="url(#paint10_linear_1820_2202)"/>
<path opacity="0.8" d="M-392.357 467.729C-392.357 467.729 -83.7014 458.289 13.5666 592.614C64.9305 663.546 31.8875 733.814 80.5582 806.62C146.748 905.633 240.419 902.529 334.331 975.782C472.168 1083.3 437.498 1217.39 579.588 1319.21C878.212 1533.22 1079.19 1377.12 1306.28 1608.72C1598.76 1907.02 1800.77 1840.89 1800.77 1840.89" stroke="url(#paint11_linear_1820_2202)"/>
<path opacity="0.8" d="M-383.514 445.621C-383.514 445.621 -74.8583 436.18 22.4097 570.505C73.7736 641.438 40.7307 711.706 89.4013 784.512C155.591 883.525 249.262 880.42 343.174 953.674C481.011 1061.19 446.341 1195.28 588.432 1297.11C887.055 1511.11 1088.03 1355.01 1315.12 1586.61C1607.61 1884.91 1809.61 1818.78 1809.61 1818.78" stroke="url(#paint12_linear_1820_2202)"/>
<path opacity="0.8" d="M-373.565 423.514C-373.565 423.514 -65.0651 414.073 32.1539 548.398C83.4919 619.33 50.4656 689.598 99.1117 762.405C165.268 861.417 258.892 858.313 352.757 931.566C490.524 1039.08 455.872 1173.17 597.891 1275C896.363 1489.01 1097.24 1332.9 1324.21 1564.5C1616.55 1862.8 1818.45 1796.67 1818.45 1796.67" stroke="url(#paint13_linear_1820_2202)"/>
<path opacity="0.8" d="M-364.722 401.405C-364.722 401.405 -56.0663 391.964 41.2017 526.29C92.5656 597.222 59.5227 667.49 108.193 740.296C174.383 839.309 268.054 836.204 361.966 909.458C499.803 1016.97 465.133 1151.06 607.224 1252.89C905.847 1466.9 1106.82 1310.79 1333.91 1542.39C1626.4 1840.69 1828.4 1774.57 1828.4 1774.57" stroke="url(#paint14_linear_1820_2202)"/>
<path opacity="0.8" d="M-355.879 379.297C-355.879 379.297 -47.2232 369.856 50.0449 504.181C101.409 575.114 68.3658 645.381 117.036 718.188C183.226 817.2 276.897 814.096 370.81 887.349C508.646 994.864 473.976 1128.95 616.067 1230.78C914.69 1444.79 1115.66 1288.68 1342.75 1520.29C1635.24 1818.59 1837.24 1752.46 1837.24 1752.46" stroke="url(#paint15_linear_1820_2202)"/>
<path opacity="0.8" d="M-347.035 357.189C-347.035 357.189 -38.3798 347.749 58.8883 482.074C110.252 553.006 77.2092 623.274 125.88 696.08C192.069 795.093 285.74 791.989 379.653 865.242C517.49 972.757 482.82 1106.85 624.91 1208.67C923.534 1422.68 1124.51 1266.58 1351.6 1498.18C1644.08 1796.48 1846.09 1730.35 1846.09 1730.35" stroke="url(#paint16_linear_1820_2202)"/>
<path opacity="0.8" d="M-338.192 333.975C-338.192 333.975 -29.5365 324.535 67.7315 458.86C119.095 529.792 86.0524 600.06 134.723 672.866C200.913 771.879 294.584 768.775 388.496 842.028C526.333 949.543 491.663 1083.63 633.753 1185.46C932.377 1399.47 1133.35 1243.36 1360.44 1474.97C1652.93 1773.27 1854.93 1707.14 1854.93 1707.14" stroke="url(#paint17_linear_1820_2202)"/>
<path opacity="0.8" d="M-328.243 311.867C-328.243 311.867 -19.7433 302.426 77.4757 436.751C128.814 507.684 95.7874 577.952 144.433 650.758C210.59 749.771 304.213 746.666 398.079 819.92C535.846 927.435 501.193 1061.52 643.212 1163.35C941.685 1377.36 1142.56 1221.25 1369.53 1452.86C1661.87 1751.16 1863.77 1685.03 1863.77 1685.03" stroke="url(#paint18_linear_1820_2202)"/>
<path opacity="0.8" d="M-319.4 289.76C-319.4 289.76 -10.745 280.319 86.523 414.644C137.887 485.576 104.844 555.844 153.515 628.651C219.704 727.663 313.375 724.559 407.288 797.812C545.124 905.327 510.454 1039.42 652.545 1141.24C951.168 1355.25 1152.14 1199.15 1379.23 1430.75C1671.72 1729.05 1873.72 1662.92 1873.72 1662.92" stroke="url(#paint19_linear_1820_2202)"/>
<path opacity="0.8" d="M-310.557 267.651C-310.557 267.651 -1.90174 258.211 95.3663 392.536C146.73 463.468 113.687 533.736 162.358 606.542C228.547 705.555 322.218 702.451 416.131 775.704C553.968 883.219 519.298 1017.31 661.388 1119.14C960.012 1333.14 1160.99 1177.04 1388.08 1408.64C1680.56 1706.94 1882.56 1640.81 1882.56 1640.81" stroke="url(#paint20_linear_1820_2202)"/>
<path opacity="0.8" d="M-301.714 245.543C-301.714 245.543 6.94152 236.102 104.21 370.427C155.573 441.36 122.53 511.628 171.201 584.434C237.391 683.447 331.062 680.342 424.974 753.596C562.811 861.11 528.141 995.199 670.231 1097.03C968.855 1311.03 1169.83 1154.93 1396.92 1386.53C1689.41 1684.83 1891.41 1618.7 1891.41 1618.7" stroke="url(#paint21_linear_1820_2202)"/>
<path opacity="0.8" d="M-291.765 223.435C-291.765 223.435 16.7347 213.995 113.954 348.32C165.292 419.252 132.265 489.52 180.912 562.326C247.068 661.339 340.691 658.235 434.557 731.488C572.324 839.003 537.671 973.092 679.69 1074.92C978.163 1288.93 1179.04 1132.82 1406.01 1364.43C1698.35 1662.72 1900.25 1596.6 1900.25 1596.6" stroke="url(#paint22_linear_1820_2202)"/>
<path opacity="0.8" d="M-282.922 201.327C-282.922 201.327 25.7335 191.886 123.002 326.211C174.365 397.144 141.322 467.412 189.993 540.218C256.183 639.231 349.854 636.126 443.766 709.38C581.603 816.895 546.933 950.984 689.023 1052.81C987.647 1266.82 1188.62 1110.71 1415.71 1342.32C1708.2 1640.62 1910.2 1574.49 1910.2 1574.49" stroke="url(#paint23_linear_1820_2202)"/>
<path opacity="0.8" d="M-274.079 178.113C-274.079 178.113 34.5768 168.672 131.845 302.998C183.209 373.93 150.166 444.198 198.836 517.004C265.026 616.017 358.697 612.912 452.609 686.166C590.446 793.681 555.776 927.77 697.867 1029.6C996.49 1243.6 1197.46 1087.5 1424.55 1319.1C1717.04 1617.4 1919.04 1551.27 1919.04 1551.27" stroke="url(#paint24_linear_1820_2202)"/>
<path opacity="0.8" d="M-265.235 156.006C-265.235 156.006 43.42 146.565 140.688 280.89C192.052 351.823 159.009 422.09 207.68 494.897C273.869 593.909 367.54 590.805 461.453 664.058C599.289 771.573 564.619 905.662 706.71 1007.49C1005.33 1221.5 1206.31 1065.39 1433.4 1297C1725.88 1595.3 1927.89 1529.17 1927.89 1529.17" stroke="url(#paint25_linear_1820_2202)"/>
<path opacity="0.8" d="M-256.392 133.897C-256.392 133.897 52.2632 124.457 149.531 258.782C200.895 329.714 167.852 399.982 216.523 472.788C282.712 571.801 376.383 568.697 470.296 641.95C608.133 749.465 573.463 883.554 715.553 985.382C1014.18 1199.39 1215.15 1043.28 1442.24 1274.89C1734.73 1573.19 1936.73 1507.06 1936.73 1507.06" stroke="url(#paint26_linear_1820_2202)"/>
<path opacity="0.8" d="M-246.443 111.789C-246.443 111.789 62.0565 102.348 159.275 236.673C210.613 307.606 177.587 377.874 226.233 450.68C292.389 549.693 386.013 546.588 479.879 619.842C617.646 727.357 582.993 861.446 725.012 963.274C1023.49 1177.28 1224.36 1021.17 1451.33 1252.78C1743.67 1551.08 1945.57 1484.95 1945.57 1484.95" stroke="url(#paint27_linear_1820_2202)"/>
<path opacity="0.8" d="M-237.6 89.6815C-237.6 89.6815 71.0553 80.2408 168.323 214.566C219.687 285.498 186.644 355.766 235.315 428.573C301.504 527.585 395.175 524.481 489.088 597.734C626.925 705.249 592.255 839.338 734.345 941.166C1032.97 1155.17 1233.94 999.067 1461.03 1230.67C1753.52 1528.97 1955.52 1462.84 1955.52 1462.84" stroke="url(#paint28_linear_1820_2202)"/>
<path opacity="0.8" d="M-228.757 67.5731C-228.757 67.5731 79.8986 58.1324 177.167 192.458C228.53 263.39 195.488 333.658 244.158 406.464C310.348 505.477 404.019 502.372 497.931 575.626C635.768 683.141 601.098 817.23 743.188 919.058C1041.81 1133.06 1242.79 976.959 1469.88 1208.56C1762.36 1506.86 1964.37 1440.73 1964.37 1440.73" stroke="url(#paint29_linear_1820_2202)"/>
<path opacity="0.8" d="M-219.914 45.4647C-219.914 45.4647 88.7418 36.024 186.01 170.349C237.374 241.282 204.331 311.549 253.001 384.356C319.191 483.368 412.862 480.264 506.775 553.517C644.611 661.032 609.941 795.121 752.032 896.95C1050.66 1110.96 1251.63 954.851 1478.72 1186.45C1771.21 1484.75 1973.21 1418.63 1973.21 1418.63" stroke="url(#paint30_linear_1820_2202)"/>
<path opacity="0.8" d="M-211.07 22.2518C-211.07 22.2518 97.5851 12.8111 194.853 147.136C246.217 218.069 213.174 288.337 261.845 361.143C328.034 460.155 421.705 457.051 515.618 530.304C653.454 637.819 618.784 771.908 760.875 873.737C1059.5 1087.74 1260.47 931.638 1487.56 1163.24C1780.05 1461.54 1982.05 1395.41 1982.05 1395.41" stroke="url(#paint31_linear_1820_2202)"/>
<defs>
<linearGradient id="paint0_linear_1820_2202" x1="613.561" y1="690.878" x2="613.561" y2="2070.42" gradientUnits="userSpaceOnUse">
<stop stop-color="#98F9FF" stop-opacity="0.74"/>
<stop offset="0.942708" stop-color="#4A8CC7" stop-opacity="0.56"/>
</linearGradient>
<linearGradient id="paint1_linear_1820_2202" x1="895.439" y1="0" x2="895.439" y2="1379.54" gradientUnits="userSpaceOnUse">
<stop stop-color="#98F9FF" stop-opacity="0.74"/>
<stop offset="0.942708" stop-color="#4A8CC7" stop-opacity="0.56"/>
</linearGradient>
<linearGradient id="paint2_linear_1820_2202" x1="622.404" y1="668.77" x2="622.404" y2="2048.31" gradientUnits="userSpaceOnUse">
<stop stop-color="#98F9FF" stop-opacity="0.74"/>
<stop offset="0.942708" stop-color="#4A8CC7" stop-opacity="0.56"/>
</linearGradient>
<linearGradient id="paint3_linear_1820_2202" x1="631.247" y1="645.556" x2="631.247" y2="2026.21" gradientUnits="userSpaceOnUse">
<stop stop-color="#98F9FF" stop-opacity="0.74"/>
<stop offset="0.942708" stop-color="#4A8CC7" stop-opacity="0.56"/>
</linearGradient>
<linearGradient id="paint4_linear_1820_2202" x1="640.644" y1="623.448" x2="640.644" y2="2002.99" gradientUnits="userSpaceOnUse">
<stop stop-color="#98F9FF" stop-opacity="0.74"/>
<stop offset="0.942708" stop-color="#4A8CC7" stop-opacity="0.56"/>
</linearGradient>
<linearGradient id="paint5_linear_1820_2202" x1="650.039" y1="601.34" x2="650.039" y2="1980.88" gradientUnits="userSpaceOnUse">
<stop stop-color="#98F9FF" stop-opacity="0.74"/>
<stop offset="0.942708" stop-color="#4A8CC7" stop-opacity="0.56"/>
</linearGradient>
<linearGradient id="paint6_linear_1820_2202" x1="658.883" y1="579.232" x2="658.883" y2="1958.78" gradientUnits="userSpaceOnUse">
<stop stop-color="#98F9FF" stop-opacity="0.74"/>
<stop offset="0.942708" stop-color="#4A8CC7" stop-opacity="0.56"/>
</linearGradient>
<linearGradient id="paint7_linear_1820_2202" x1="667.726" y1="557.124" x2="667.726" y2="1936.67" gradientUnits="userSpaceOnUse">
<stop stop-color="#98F9FF" stop-opacity="0.74"/>
<stop offset="0.942708" stop-color="#4A8CC7" stop-opacity="0.56"/>
</linearGradient>
<linearGradient id="paint8_linear_1820_2202" x1="677.122" y1="535.016" x2="677.122" y2="1914.56" gradientUnits="userSpaceOnUse">
<stop stop-color="#98F9FF" stop-opacity="0.74"/>
<stop offset="0.942708" stop-color="#4A8CC7" stop-opacity="0.56"/>
</linearGradient>
<linearGradient id="paint9_linear_1820_2202" x1="686.517" y1="512.908" x2="686.517" y2="1892.45" gradientUnits="userSpaceOnUse">
<stop stop-color="#98F9FF" stop-opacity="0.74"/>
<stop offset="0.942708" stop-color="#4A8CC7" stop-opacity="0.56"/>
</linearGradient>
<linearGradient id="paint10_linear_1820_2202" x1="695.361" y1="489.694" x2="695.361" y2="1870.34" gradientUnits="userSpaceOnUse">
<stop stop-color="#98F9FF" stop-opacity="0.74"/>
<stop offset="0.942708" stop-color="#4A8CC7" stop-opacity="0.56"/>
</linearGradient>
<linearGradient id="paint11_linear_1820_2202" x1="704.204" y1="467.586" x2="704.204" y2="1847.13" gradientUnits="userSpaceOnUse">
<stop stop-color="#98F9FF" stop-opacity="0.74"/>
<stop offset="0.942708" stop-color="#4A8CC7" stop-opacity="0.56"/>
</linearGradient>
<linearGradient id="paint12_linear_1820_2202" x1="713.047" y1="445.478" x2="713.047" y2="1825.02" gradientUnits="userSpaceOnUse">
<stop stop-color="#98F9FF" stop-opacity="0.74"/>
<stop offset="0.942708" stop-color="#4A8CC7" stop-opacity="0.56"/>
</linearGradient>
<linearGradient id="paint13_linear_1820_2202" x1="722.443" y1="423.37" x2="722.443" y2="1802.91" gradientUnits="userSpaceOnUse">
<stop stop-color="#98F9FF" stop-opacity="0.74"/>
<stop offset="0.942708" stop-color="#4A8CC7" stop-opacity="0.56"/>
</linearGradient>
<linearGradient id="paint14_linear_1820_2202" x1="731.839" y1="401.262" x2="731.839" y2="1780.81" gradientUnits="userSpaceOnUse">
<stop stop-color="#98F9FF" stop-opacity="0.74"/>
<stop offset="0.942708" stop-color="#4A8CC7" stop-opacity="0.56"/>
</linearGradient>
<linearGradient id="paint15_linear_1820_2202" x1="740.682" y1="379.153" x2="740.682" y2="1758.7" gradientUnits="userSpaceOnUse">
<stop stop-color="#98F9FF" stop-opacity="0.74"/>
<stop offset="0.942708" stop-color="#4A8CC7" stop-opacity="0.56"/>
</linearGradient>
<linearGradient id="paint16_linear_1820_2202" x1="749.526" y1="357.046" x2="749.526" y2="1736.59" gradientUnits="userSpaceOnUse">
<stop stop-color="#98F9FF" stop-opacity="0.74"/>
<stop offset="0.942708" stop-color="#4A8CC7" stop-opacity="0.56"/>
</linearGradient>
<linearGradient id="paint17_linear_1820_2202" x1="758.369" y1="333.832" x2="758.369" y2="1713.38" gradientUnits="userSpaceOnUse">
<stop stop-color="#98F9FF" stop-opacity="0.74"/>
<stop offset="0.942708" stop-color="#4A8CC7" stop-opacity="0.56"/>
</linearGradient>
<linearGradient id="paint18_linear_1820_2202" x1="767.765" y1="311.724" x2="767.765" y2="1691.27" gradientUnits="userSpaceOnUse">
<stop stop-color="#98F9FF" stop-opacity="0.74"/>
<stop offset="0.942708" stop-color="#4A8CC7" stop-opacity="0.56"/>
</linearGradient>
<linearGradient id="paint19_linear_1820_2202" x1="777.161" y1="289.616" x2="777.161" y2="1669.16" gradientUnits="userSpaceOnUse">
<stop stop-color="#98F9FF" stop-opacity="0.74"/>
<stop offset="0.942708" stop-color="#4A8CC7" stop-opacity="0.56"/>
</linearGradient>
<linearGradient id="paint20_linear_1820_2202" x1="786.004" y1="267.508" x2="786.004" y2="1647.05" gradientUnits="userSpaceOnUse">
<stop stop-color="#98F9FF" stop-opacity="0.74"/>
<stop offset="0.942708" stop-color="#4A8CC7" stop-opacity="0.56"/>
</linearGradient>
<linearGradient id="paint21_linear_1820_2202" x1="794.847" y1="245.399" x2="794.847" y2="1624.94" gradientUnits="userSpaceOnUse">
<stop stop-color="#98F9FF" stop-opacity="0.74"/>
<stop offset="0.942708" stop-color="#4A8CC7" stop-opacity="0.56"/>
</linearGradient>
<linearGradient id="paint22_linear_1820_2202" x1="804.243" y1="223.292" x2="804.243" y2="1602.84" gradientUnits="userSpaceOnUse">
<stop stop-color="#98F9FF" stop-opacity="0.74"/>
<stop offset="0.942708" stop-color="#4A8CC7" stop-opacity="0.56"/>
</linearGradient>
<linearGradient id="paint23_linear_1820_2202" x1="813.639" y1="201.184" x2="813.639" y2="1580.73" gradientUnits="userSpaceOnUse">
<stop stop-color="#98F9FF" stop-opacity="0.74"/>
<stop offset="0.942708" stop-color="#4A8CC7" stop-opacity="0.56"/>
</linearGradient>
<linearGradient id="paint24_linear_1820_2202" x1="822.482" y1="177.97" x2="822.482" y2="1557.51" gradientUnits="userSpaceOnUse">
<stop stop-color="#98F9FF" stop-opacity="0.74"/>
<stop offset="0.942708" stop-color="#4A8CC7" stop-opacity="0.56"/>
</linearGradient>
<linearGradient id="paint25_linear_1820_2202" x1="831.326" y1="155.862" x2="831.326" y2="1535.41" gradientUnits="userSpaceOnUse">
<stop stop-color="#98F9FF" stop-opacity="0.74"/>
<stop offset="0.942708" stop-color="#4A8CC7" stop-opacity="0.56"/>
</linearGradient>
<linearGradient id="paint26_linear_1820_2202" x1="840.169" y1="133.754" x2="840.169" y2="1513.3" gradientUnits="userSpaceOnUse">
<stop stop-color="#98F9FF" stop-opacity="0.74"/>
<stop offset="0.942708" stop-color="#4A8CC7" stop-opacity="0.56"/>
</linearGradient>
<linearGradient id="paint27_linear_1820_2202" x1="849.565" y1="111.646" x2="849.565" y2="1491.19" gradientUnits="userSpaceOnUse">
<stop stop-color="#98F9FF" stop-opacity="0.74"/>
<stop offset="0.942708" stop-color="#4A8CC7" stop-opacity="0.56"/>
</linearGradient>
<linearGradient id="paint28_linear_1820_2202" x1="858.961" y1="89.5381" x2="858.961" y2="1469.08" gradientUnits="userSpaceOnUse">
<stop stop-color="#98F9FF" stop-opacity="0.74"/>
<stop offset="0.942708" stop-color="#4A8CC7" stop-opacity="0.56"/>
</linearGradient>
<linearGradient id="paint29_linear_1820_2202" x1="867.804" y1="67.4297" x2="867.804" y2="1446.97" gradientUnits="userSpaceOnUse">
<stop stop-color="#98F9FF" stop-opacity="0.74"/>
<stop offset="0.942708" stop-color="#4A8CC7" stop-opacity="0.56"/>
</linearGradient>
<linearGradient id="paint30_linear_1820_2202" x1="876.647" y1="45.3213" x2="876.647" y2="1424.87" gradientUnits="userSpaceOnUse">
<stop stop-color="#98F9FF" stop-opacity="0.74"/>
<stop offset="0.942708" stop-color="#4A8CC7" stop-opacity="0.56"/>
</linearGradient>
<linearGradient id="paint31_linear_1820_2202" x1="885.491" y1="22.1084" x2="885.491" y2="1401.65" gradientUnits="userSpaceOnUse">
<stop stop-color="#98F9FF" stop-opacity="0.74"/>
<stop offset="0.942708" stop-color="#4A8CC7" stop-opacity="0.56"/>
</linearGradient>
</defs>
</svg>
