<svg width="768" height="2801" viewBox="0 0 768 2801" fill="none" xmlns="http://www.w3.org/2000/svg">
<g opacity="0.5">
<mask id="mask0_1838_2059" style="mask-type:alpha" maskUnits="userSpaceOnUse" x="0" y="0" width="768" height="2801">
<rect width="768" height="2801" transform="matrix(-1 0 0 1 768 0)" fill="#246F8F"/>
</mask>
<g mask="url(#mask0_1838_2059)">
<path opacity="0.8" d="M-577.028 832.567C-577.028 832.567 -307.221 953.761 -275.198 1120.34C-258.288 1208.3 -313.908 1260.09 -300.043 1348.67C-281.189 1469.14 -199.215 1505.69 -146.51 1613.75C-69.1534 1772.35 -150.814 1883.12 -67.5941 2038.2C107.304 2364.1 340.873 2302.8 447.292 2615.02C584.357 3017.16 784.078 3040.42 784.078 3040.42" stroke="url(#paint0_linear_1838_2059)"/>
<path opacity="0.8" d="M-67.2526 305.293C-67.2526 305.293 202.555 426.488 234.578 593.065C251.488 681.029 195.868 732.815 209.732 821.396C228.587 941.862 310.561 978.418 363.266 1086.48C440.622 1245.07 358.962 1355.85 442.181 1510.92C617.079 1836.83 850.648 1775.52 957.067 2087.75C1094.13 2489.89 1293.85 2513.15 1293.85 2513.15" stroke="url(#paint1_linear_1838_2059)"/>
<path opacity="0.8" d="M-560.868 815.619C-560.868 815.619 -291.06 936.814 -259.038 1103.39C-242.127 1191.36 -297.747 1243.14 -283.883 1331.72C-265.028 1452.19 -183.055 1488.74 -130.349 1596.8C-52.9932 1755.4 -134.653 1866.18 -51.4339 2021.25C123.464 2347.16 357.033 2285.85 463.452 2598.08C600.517 3000.22 800.238 3023.48 800.238 3023.48" stroke="url(#paint2_linear_1838_2059)"/>
<path opacity="0.8" d="M-544.281 797.638C-544.281 797.638 -274.471 918.826 -242.489 1085.5C-225.601 1173.52 -281.243 1225.36 -267.401 1313.99C-248.577 1434.53 -166.602 1471.09 -113.92 1579.2C-36.5967 1737.88 -118.299 1848.76 -35.1105 2003.91C139.721 2329.97 373.338 2268.55 479.686 2580.95C616.659 2983.31 816.4 3006.52 816.4 3006.52" stroke="url(#paint3_linear_1838_2059)"/>
<path opacity="0.8" d="M-527.168 781.157C-527.168 781.157 -257.494 902.286 -225.514 1068.84C-208.626 1156.8 -264.232 1208.59 -250.388 1297.16C-231.563 1417.61 -149.629 1454.15 -96.965 1562.19C-19.6688 1720.75 -101.314 1831.54 -18.1562 1986.58C156.612 2312.42 390.094 2251.07 496.414 2563.25C633.352 2965.33 832.985 2988.55 832.985 2988.55" stroke="url(#paint4_linear_1838_2059)"/>
<path opacity="0.8" d="M-511.008 764.209C-511.008 764.209 -241.2 885.404 -209.177 1051.98C-192.267 1139.95 -247.887 1191.73 -234.023 1280.31C-215.168 1400.78 -133.194 1437.33 -80.489 1545.39C-3.13288 1703.99 -84.7932 1814.77 -1.57361 1969.84C173.324 2295.75 406.893 2234.44 513.312 2546.67C650.377 2948.81 850.098 2972.07 850.098 2972.07" stroke="url(#paint5_linear_1838_2059)"/>
<path opacity="0.8" d="M-494.846 747.262C-494.846 747.262 -225.039 868.457 -193.016 1035.03C-176.106 1123 -231.726 1174.78 -217.862 1263.36C-199.007 1383.83 -117.033 1420.39 -64.3279 1528.44C13.0283 1687.04 -68.632 1797.82 14.5875 1952.89C189.485 2278.8 423.054 2217.49 529.473 2529.72C666.539 2931.86 866.259 2955.12 866.259 2955.12" stroke="url(#paint6_linear_1838_2059)"/>
<path opacity="0.8" d="M-478.686 730.316C-478.686 730.316 -208.879 851.51 -176.856 1018.09C-159.946 1106.05 -215.566 1157.84 -201.701 1246.42C-182.847 1366.88 -100.873 1403.44 -48.1677 1511.5C29.1884 1670.1 -52.4719 1780.87 30.7477 1935.95C205.645 2261.85 439.215 2200.54 545.634 2512.77C682.699 2914.91 882.42 2938.17 882.42 2938.17" stroke="url(#paint7_linear_1838_2059)"/>
<path opacity="0.8" d="M-461.573 713.833C-461.573 713.833 -191.9 834.963 -159.919 1001.52C-143.031 1089.47 -198.637 1141.26 -184.794 1229.84C-165.968 1350.29 -84.0347 1386.82 -31.3703 1494.86C45.926 1653.43 -35.7193 1764.21 47.4385 1919.26C222.207 2245.1 455.688 2183.75 562.009 2495.93C698.947 2898.01 898.58 2921.23 898.58 2921.23" stroke="url(#paint8_linear_1838_2059)"/>
<path opacity="0.8" d="M-445.413 696.886C-445.413 696.886 -175.605 818.081 -143.583 984.658C-126.672 1072.62 -182.292 1124.41 -168.428 1212.99C-149.573 1333.45 -67.5995 1370.01 -14.8943 1478.07C62.4618 1636.67 -19.1985 1747.44 64.0211 1902.52C238.919 2228.42 472.488 2167.12 578.907 2479.34C715.972 2881.48 915.693 2904.74 915.693 2904.74" stroke="url(#paint9_linear_1838_2059)"/>
<path opacity="0.8" d="M-428.825 678.906C-428.825 678.906 -159.015 800.093 -127.033 966.771C-110.145 1054.79 -165.787 1106.63 -151.945 1195.26C-133.121 1315.8 -51.1462 1352.36 1.53638 1460.47C78.8593 1619.15 -2.84253 1730.03 80.3455 1885.17C255.177 2211.24 488.794 2149.82 595.142 2462.22C732.115 2864.58 931.856 2887.79 931.856 2887.79" stroke="url(#paint10_linear_1838_2059)"/>
<path opacity="0.8" d="M-412.665 661.958C-412.665 661.958 -142.857 783.153 -110.834 949.73C-93.9243 1037.69 -149.544 1089.48 -135.68 1178.06C-116.825 1298.53 -34.8514 1335.08 17.8538 1443.14C95.2099 1601.74 13.5496 1712.52 96.7692 1867.59C271.667 2193.49 505.236 2132.19 611.655 2444.41C748.72 2846.56 948.441 2869.82 948.441 2869.82" stroke="url(#paint11_linear_1838_2059)"/>
<path opacity="0.8" d="M-396.505 645.011C-396.505 645.011 -126.697 766.206 -94.6743 932.783C-77.7642 1020.75 -133.384 1072.53 -119.52 1161.11C-100.665 1281.58 -18.6913 1318.14 34.0139 1426.19C111.37 1584.79 29.7097 1695.57 112.929 1850.64C287.827 2176.55 521.396 2115.24 627.815 2427.47C764.88 2829.61 964.601 2852.87 964.601 2852.87" stroke="url(#paint12_linear_1838_2059)"/>
<path opacity="0.8" d="M-379.391 628.53C-379.391 628.53 -109.718 749.659 -77.7374 916.215C-60.8496 1004.17 -116.455 1055.96 -102.612 1144.53C-83.7861 1264.98 -1.85301 1301.52 50.8114 1409.56C128.108 1568.13 46.4624 1678.91 129.62 1833.95C304.388 2159.8 537.87 2098.45 644.19 2410.63C781.128 2812.7 980.761 2835.92 980.761 2835.92" stroke="url(#paint13_linear_1838_2059)"/>
<path opacity="0.8" d="M-363.231 611.582C-363.231 611.582 -93.4237 732.777 -61.4009 899.354C-44.4907 987.318 -100.111 1039.1 -86.2464 1127.69C-67.3917 1248.15 14.5821 1284.71 67.2874 1392.77C144.643 1551.36 62.9832 1662.14 146.203 1817.21C321.1 2143.12 554.67 2081.81 661.089 2394.04C798.154 2796.18 997.875 2819.44 997.875 2819.44" stroke="url(#paint14_linear_1838_2059)"/>
<path opacity="0.8" d="M-347.07 594.634C-347.07 594.634 -77.2625 715.829 -45.2397 882.406C-28.3296 970.37 -83.9495 1022.16 -70.0852 1110.74C-51.2306 1231.2 30.7433 1267.76 83.4485 1375.82C160.805 1534.41 79.1443 1645.19 162.364 1800.26C337.262 2126.17 570.831 2064.86 677.25 2377.09C814.315 2779.23 1014.04 2802.49 1014.04 2802.49" stroke="url(#paint15_linear_1838_2059)"/>
<path opacity="0.8" d="M-330.91 577.687C-330.91 577.687 -61.1024 698.882 -29.0796 865.459C-12.1695 953.423 -67.7894 1005.21 -53.9251 1093.79C-35.0704 1214.26 46.9034 1250.81 99.6086 1358.87C176.965 1517.47 95.3045 1628.24 178.524 1783.32C353.422 2109.22 586.991 2047.92 693.41 2360.14C830.475 2762.28 1030.2 2785.54 1030.2 2785.54" stroke="url(#paint16_linear_1838_2059)"/>
<path opacity="0.8" d="M-314.323 559.706C-314.323 559.706 -44.5155 680.901 -12.4927 847.478C4.41746 935.442 -51.2025 987.228 -37.3382 1075.81C-18.4835 1196.27 63.4903 1232.83 116.196 1340.89C193.552 1499.49 111.891 1610.26 195.111 1765.34C370.009 2091.24 603.578 2029.94 709.997 2342.16C847.062 2744.3 1046.78 2767.56 1046.78 2767.56" stroke="url(#paint17_linear_1838_2059)"/>
<path opacity="0.8" d="M-297.21 543.225C-297.21 543.225 -27.5363 664.354 4.44421 830.911C21.332 918.864 -34.2736 970.656 -20.4304 1059.23C-1.60451 1179.68 80.3286 1216.22 132.993 1324.25C210.289 1482.82 128.644 1593.61 211.802 1748.65C386.57 2074.49 620.052 2013.14 726.372 2325.32C863.31 2727.4 1062.94 2750.62 1062.94 2750.62" stroke="url(#paint18_linear_1838_2059)"/>
<path opacity="0.8" d="M-281.049 526.278C-281.049 526.278 -11.242 647.472 20.7808 814.05C37.6909 902.013 -17.929 953.799 -4.06474 1042.38C14.7899 1162.85 96.7638 1199.4 149.469 1307.46C226.825 1466.06 145.165 1576.84 228.384 1731.91C403.282 2057.81 636.851 1996.51 743.27 2308.73C880.335 2710.88 1080.06 2734.14 1080.06 2734.14" stroke="url(#paint19_linear_1838_2059)"/>
<path opacity="0.8" d="M-264.888 509.33C-264.888 509.33 4.91912 630.525 36.9419 797.102C53.852 885.066 -1.76789 936.852 12.0964 1025.43C30.9511 1145.9 112.925 1182.46 165.63 1290.51C242.986 1449.11 161.326 1559.89 244.546 1714.96C419.443 2040.87 653.012 1979.56 759.432 2291.79C896.497 2693.93 1096.22 2717.19 1096.22 2717.19" stroke="url(#paint20_linear_1838_2059)"/>
<path opacity="0.8" d="M-248.729 492.383C-248.729 492.383 21.0783 613.578 53.1011 780.155C70.0112 868.119 14.3913 919.904 28.2556 1008.49C47.1103 1128.95 129.084 1165.51 181.789 1273.57C259.145 1432.16 177.485 1542.94 260.705 1698.01C435.602 2023.92 669.172 1962.61 775.591 2274.84C912.656 2676.98 1112.38 2700.24 1112.38 2700.24" stroke="url(#paint21_linear_1838_2059)"/>
<path opacity="0.8" d="M-231.615 475.902C-231.615 475.902 38.0584 597.031 70.0389 763.588C86.9267 851.54 31.3212 903.333 45.1643 991.904C63.9902 1112.36 145.923 1148.89 198.588 1256.93C275.884 1415.5 194.239 1526.28 277.397 1681.33C452.165 2007.17 685.646 1945.82 791.967 2258C928.905 2660.08 1128.54 2683.29 1128.54 2683.29" stroke="url(#paint22_linear_1838_2059)"/>
<path opacity="0.8" d="M-215.455 458.954C-215.455 458.954 54.3527 580.149 86.3754 746.726C103.286 834.69 47.6656 886.476 61.5299 975.057C80.3846 1095.52 162.358 1132.08 215.064 1240.14C292.42 1398.74 210.759 1509.51 293.979 1664.58C468.877 1990.49 702.446 1929.18 808.865 2241.41C945.93 2643.55 1145.65 2666.81 1145.65 2666.81" stroke="url(#paint23_linear_1838_2059)"/>
<path opacity="0.8" d="M-198.868 440.974C-198.868 440.974 70.9396 562.169 102.962 728.746C119.873 816.71 64.2526 868.495 78.1169 957.077C96.9716 1077.54 178.945 1114.1 231.651 1222.16C309.007 1380.75 227.346 1491.53 310.566 1646.6C485.464 1972.51 719.033 1911.2 825.452 2223.43C962.517 2625.57 1162.24 2648.83 1162.24 2648.83" stroke="url(#paint24_linear_1838_2059)"/>
<path opacity="0.8" d="M-182.708 424.027C-182.708 424.027 87.0998 545.221 119.123 711.799C136.033 799.762 80.4128 851.548 94.2771 940.129C113.132 1060.6 195.106 1097.15 247.811 1205.21C325.167 1363.81 243.507 1474.58 326.726 1629.66C501.624 1955.56 735.193 1894.26 841.612 2206.48C978.677 2608.62 1178.4 2631.88 1178.4 2631.88" stroke="url(#paint25_linear_1838_2059)"/>
<path opacity="0.8" d="M-166.547 407.079C-166.547 407.079 103.261 528.274 135.284 694.851C152.194 782.815 96.5739 834.601 110.438 923.182C129.293 1043.65 211.267 1080.2 263.972 1188.26C341.328 1346.86 259.668 1457.64 342.887 1612.71C517.785 1938.62 751.354 1877.31 857.773 2189.54C994.838 2591.68 1194.56 2614.94 1194.56 2614.94" stroke="url(#paint26_linear_1838_2059)"/>
<path opacity="0.8" d="M-149.433 390.597C-149.433 390.597 120.24 511.726 152.221 678.283C169.108 766.236 113.503 818.028 127.346 906.599C146.172 1027.05 228.105 1063.59 280.769 1171.63C358.066 1330.19 276.42 1440.98 359.578 1596.02C534.346 1921.86 767.828 1860.51 874.148 2172.69C1011.09 2574.77 1210.72 2597.99 1210.72 2597.99" stroke="url(#paint27_linear_1838_2059)"/>
<path opacity="0.8" d="M-133.273 373.65C-133.273 373.65 136.534 494.844 168.557 661.422C185.467 749.385 129.847 801.171 143.712 889.752C162.566 1010.22 244.54 1046.77 297.245 1154.83C374.601 1313.43 292.941 1424.21 376.161 1579.28C551.058 1905.19 784.628 1843.88 891.047 2156.11C1028.11 2558.25 1227.83 2581.51 1227.83 2581.51" stroke="url(#paint28_linear_1838_2059)"/>
<path opacity="0.8" d="M-117.113 356.702C-117.113 356.702 152.695 477.897 184.717 644.475C201.627 732.438 146.008 784.224 159.872 872.805C178.726 993.271 260.7 1029.83 313.406 1137.89C390.762 1296.48 309.101 1407.26 392.321 1562.33C567.219 1888.24 800.788 1826.93 907.207 2139.16C1044.27 2541.3 1243.99 2564.56 1243.99 2564.56" stroke="url(#paint29_linear_1838_2059)"/>
<path opacity="0.8" d="M-100.953 339.755C-100.953 339.755 168.855 460.95 200.877 627.527C217.788 715.491 162.168 767.277 176.032 855.858C194.887 976.324 276.86 1012.88 329.566 1120.94C406.922 1279.54 325.262 1390.31 408.481 1545.39C583.379 1871.29 816.948 1809.98 923.367 2122.21C1060.43 2524.35 1260.15 2547.61 1260.15 2547.61" stroke="url(#paint30_linear_1838_2059)"/>
<path opacity="0.8" d="M-84.3659 321.775C-84.3659 321.775 185.442 442.969 217.464 609.547C234.374 697.51 178.755 749.296 192.619 837.877C211.474 958.343 293.447 994.9 346.153 1102.96C423.509 1261.56 341.848 1372.33 425.068 1527.4C599.966 1853.31 833.535 1792 939.954 2104.23C1077.02 2506.37 1276.74 2529.63 1276.74 2529.63" stroke="url(#paint31_linear_1838_2059)"/>
</g>
</g>
<defs>
<linearGradient id="paint0_linear_1838_2059" x1="368.626" y1="1294.36" x2="-242.726" y2="2545.84" gradientUnits="userSpaceOnUse">
<stop stop-color="#98F9FF" stop-opacity="0.74"/>
<stop offset="0.942708" stop-color="#4A8CC7" stop-opacity="0.56"/>
</linearGradient>
<linearGradient id="paint1_linear_1838_2059" x1="878.401" y1="767.09" x2="267.049" y2="2018.56" gradientUnits="userSpaceOnUse">
<stop stop-color="#98F9FF" stop-opacity="0.74"/>
<stop offset="0.942708" stop-color="#4A8CC7" stop-opacity="0.56"/>
</linearGradient>
<linearGradient id="paint2_linear_1838_2059" x1="384.786" y1="1277.42" x2="-226.566" y2="2528.89" gradientUnits="userSpaceOnUse">
<stop stop-color="#98F9FF" stop-opacity="0.74"/>
<stop offset="0.942708" stop-color="#4A8CC7" stop-opacity="0.56"/>
</linearGradient>
<linearGradient id="paint3_linear_1838_2059" x1="401.373" y1="1259.43" x2="-210.469" y2="2511.91" gradientUnits="userSpaceOnUse">
<stop stop-color="#98F9FF" stop-opacity="0.74"/>
<stop offset="0.942708" stop-color="#4A8CC7" stop-opacity="0.56"/>
</linearGradient>
<linearGradient id="paint4_linear_1838_2059" x1="418.009" y1="1242.72" x2="-193.343" y2="2494.19" gradientUnits="userSpaceOnUse">
<stop stop-color="#98F9FF" stop-opacity="0.74"/>
<stop offset="0.942708" stop-color="#4A8CC7" stop-opacity="0.56"/>
</linearGradient>
<linearGradient id="paint5_linear_1838_2059" x1="434.646" y1="1226.01" x2="-176.706" y2="2477.48" gradientUnits="userSpaceOnUse">
<stop stop-color="#98F9FF" stop-opacity="0.74"/>
<stop offset="0.942708" stop-color="#4A8CC7" stop-opacity="0.56"/>
</linearGradient>
<linearGradient id="paint6_linear_1838_2059" x1="450.807" y1="1209.06" x2="-160.545" y2="2460.53" gradientUnits="userSpaceOnUse">
<stop stop-color="#98F9FF" stop-opacity="0.74"/>
<stop offset="0.942708" stop-color="#4A8CC7" stop-opacity="0.56"/>
</linearGradient>
<linearGradient id="paint7_linear_1838_2059" x1="466.967" y1="1192.11" x2="-144.385" y2="2443.58" gradientUnits="userSpaceOnUse">
<stop stop-color="#98F9FF" stop-opacity="0.74"/>
<stop offset="0.942708" stop-color="#4A8CC7" stop-opacity="0.56"/>
</linearGradient>
<linearGradient id="paint8_linear_1838_2059" x1="483.604" y1="1175.4" x2="-127.748" y2="2426.87" gradientUnits="userSpaceOnUse">
<stop stop-color="#98F9FF" stop-opacity="0.74"/>
<stop offset="0.942708" stop-color="#4A8CC7" stop-opacity="0.56"/>
</linearGradient>
<linearGradient id="paint9_linear_1838_2059" x1="500.241" y1="1158.68" x2="-111.111" y2="2410.15" gradientUnits="userSpaceOnUse">
<stop stop-color="#98F9FF" stop-opacity="0.74"/>
<stop offset="0.942708" stop-color="#4A8CC7" stop-opacity="0.56"/>
</linearGradient>
<linearGradient id="paint10_linear_1838_2059" x1="516.829" y1="1140.7" x2="-95.0132" y2="2393.18" gradientUnits="userSpaceOnUse">
<stop stop-color="#98F9FF" stop-opacity="0.74"/>
<stop offset="0.942708" stop-color="#4A8CC7" stop-opacity="0.56"/>
</linearGradient>
<linearGradient id="paint11_linear_1838_2059" x1="532.989" y1="1123.76" x2="-78.3631" y2="2375.23" gradientUnits="userSpaceOnUse">
<stop stop-color="#98F9FF" stop-opacity="0.74"/>
<stop offset="0.942708" stop-color="#4A8CC7" stop-opacity="0.56"/>
</linearGradient>
<linearGradient id="paint12_linear_1838_2059" x1="549.149" y1="1106.81" x2="-62.2029" y2="2358.28" gradientUnits="userSpaceOnUse">
<stop stop-color="#98F9FF" stop-opacity="0.74"/>
<stop offset="0.942708" stop-color="#4A8CC7" stop-opacity="0.56"/>
</linearGradient>
<linearGradient id="paint13_linear_1838_2059" x1="565.786" y1="1090.09" x2="-45.5662" y2="2341.57" gradientUnits="userSpaceOnUse">
<stop stop-color="#98F9FF" stop-opacity="0.74"/>
<stop offset="0.942708" stop-color="#4A8CC7" stop-opacity="0.56"/>
</linearGradient>
<linearGradient id="paint14_linear_1838_2059" x1="582.422" y1="1073.38" x2="-28.9295" y2="2324.85" gradientUnits="userSpaceOnUse">
<stop stop-color="#98F9FF" stop-opacity="0.74"/>
<stop offset="0.942708" stop-color="#4A8CC7" stop-opacity="0.56"/>
</linearGradient>
<linearGradient id="paint15_linear_1838_2059" x1="598.584" y1="1056.43" x2="-12.7683" y2="2307.9" gradientUnits="userSpaceOnUse">
<stop stop-color="#98F9FF" stop-opacity="0.74"/>
<stop offset="0.942708" stop-color="#4A8CC7" stop-opacity="0.56"/>
</linearGradient>
<linearGradient id="paint16_linear_1838_2059" x1="614.744" y1="1039.48" x2="3.39181" y2="2290.96" gradientUnits="userSpaceOnUse">
<stop stop-color="#98F9FF" stop-opacity="0.74"/>
<stop offset="0.942708" stop-color="#4A8CC7" stop-opacity="0.56"/>
</linearGradient>
<linearGradient id="paint17_linear_1838_2059" x1="631.331" y1="1021.5" x2="19.9787" y2="2272.97" gradientUnits="userSpaceOnUse">
<stop stop-color="#98F9FF" stop-opacity="0.74"/>
<stop offset="0.942708" stop-color="#4A8CC7" stop-opacity="0.56"/>
</linearGradient>
<linearGradient id="paint18_linear_1838_2059" x1="647.967" y1="1004.79" x2="36.6154" y2="2256.26" gradientUnits="userSpaceOnUse">
<stop stop-color="#98F9FF" stop-opacity="0.74"/>
<stop offset="0.942708" stop-color="#4A8CC7" stop-opacity="0.56"/>
</linearGradient>
<linearGradient id="paint19_linear_1838_2059" x1="664.604" y1="988.074" x2="53.2522" y2="2239.55" gradientUnits="userSpaceOnUse">
<stop stop-color="#98F9FF" stop-opacity="0.74"/>
<stop offset="0.942708" stop-color="#4A8CC7" stop-opacity="0.56"/>
</linearGradient>
<linearGradient id="paint20_linear_1838_2059" x1="680.765" y1="971.127" x2="69.4133" y2="2222.6" gradientUnits="userSpaceOnUse">
<stop stop-color="#98F9FF" stop-opacity="0.74"/>
<stop offset="0.942708" stop-color="#4A8CC7" stop-opacity="0.56"/>
</linearGradient>
<linearGradient id="paint21_linear_1838_2059" x1="696.924" y1="954.18" x2="85.5725" y2="2205.65" gradientUnits="userSpaceOnUse">
<stop stop-color="#98F9FF" stop-opacity="0.74"/>
<stop offset="0.942708" stop-color="#4A8CC7" stop-opacity="0.56"/>
</linearGradient>
<linearGradient id="paint22_linear_1838_2059" x1="713.562" y1="937.466" x2="102.21" y2="2188.94" gradientUnits="userSpaceOnUse">
<stop stop-color="#98F9FF" stop-opacity="0.74"/>
<stop offset="0.942708" stop-color="#4A8CC7" stop-opacity="0.56"/>
</linearGradient>
<linearGradient id="paint23_linear_1838_2059" x1="730.199" y1="920.751" x2="118.847" y2="2172.22" gradientUnits="userSpaceOnUse">
<stop stop-color="#98F9FF" stop-opacity="0.74"/>
<stop offset="0.942708" stop-color="#4A8CC7" stop-opacity="0.56"/>
</linearGradient>
<linearGradient id="paint24_linear_1838_2059" x1="746.786" y1="902.771" x2="135.434" y2="2154.24" gradientUnits="userSpaceOnUse">
<stop stop-color="#98F9FF" stop-opacity="0.74"/>
<stop offset="0.942708" stop-color="#4A8CC7" stop-opacity="0.56"/>
</linearGradient>
<linearGradient id="paint25_linear_1838_2059" x1="762.946" y1="885.823" x2="151.594" y2="2137.3" gradientUnits="userSpaceOnUse">
<stop stop-color="#98F9FF" stop-opacity="0.74"/>
<stop offset="0.942708" stop-color="#4A8CC7" stop-opacity="0.56"/>
</linearGradient>
<linearGradient id="paint26_linear_1838_2059" x1="779.107" y1="868.876" x2="167.755" y2="2120.35" gradientUnits="userSpaceOnUse">
<stop stop-color="#98F9FF" stop-opacity="0.74"/>
<stop offset="0.942708" stop-color="#4A8CC7" stop-opacity="0.56"/>
</linearGradient>
<linearGradient id="paint27_linear_1838_2059" x1="795.744" y1="852.161" x2="184.392" y2="2103.63" gradientUnits="userSpaceOnUse">
<stop stop-color="#98F9FF" stop-opacity="0.74"/>
<stop offset="0.942708" stop-color="#4A8CC7" stop-opacity="0.56"/>
</linearGradient>
<linearGradient id="paint28_linear_1838_2059" x1="812.381" y1="835.447" x2="201.029" y2="2086.92" gradientUnits="userSpaceOnUse">
<stop stop-color="#98F9FF" stop-opacity="0.74"/>
<stop offset="0.942708" stop-color="#4A8CC7" stop-opacity="0.56"/>
</linearGradient>
<linearGradient id="paint29_linear_1838_2059" x1="828.541" y1="818.499" x2="217.189" y2="2069.97" gradientUnits="userSpaceOnUse">
<stop stop-color="#98F9FF" stop-opacity="0.74"/>
<stop offset="0.942708" stop-color="#4A8CC7" stop-opacity="0.56"/>
</linearGradient>
<linearGradient id="paint30_linear_1838_2059" x1="844.701" y1="801.552" x2="233.349" y2="2053.02" gradientUnits="userSpaceOnUse">
<stop stop-color="#98F9FF" stop-opacity="0.74"/>
<stop offset="0.942708" stop-color="#4A8CC7" stop-opacity="0.56"/>
</linearGradient>
<linearGradient id="paint31_linear_1838_2059" x1="861.288" y1="783.572" x2="249.936" y2="2035.04" gradientUnits="userSpaceOnUse">
<stop stop-color="#98F9FF" stop-opacity="0.74"/>
<stop offset="0.942708" stop-color="#4A8CC7" stop-opacity="0.56"/>
</linearGradient>
</defs>
</svg>
