<svg width="375" height="2890" viewBox="0 0 375 2890" fill="none" xmlns="http://www.w3.org/2000/svg">
<g opacity="0.5">
<mask id="mask0_1838_2392" style="mask-type:alpha" maskUnits="userSpaceOnUse" x="0" y="0" width="375" height="2890">
<rect width="375" height="2890" transform="matrix(-1 0 0 1 375 0)" fill="#246F8F"/>
</mask>
<g mask="url(#mask0_1838_2392)">
<path opacity="0.8" d="M-529.732 291.205C-529.732 291.205 -310.815 497.588 -332.033 672.218C-343.238 764.434 -412.176 797.62 -426.468 889.466C-445.904 1014.37 -379.31 1076.81 -362.716 1200.37C-338.361 1381.72 -450.351 1464.72 -419.329 1644.47C-354.131 2022.26 -113.065 2036.94 -108.727 2379.2C-103.14 2820.01 79.5196 2907.23 79.5196 2907.23" stroke="url(#paint0_linear_1838_2392)"/>
<path opacity="0.8" d="M118.435 -64.8855C118.435 -64.8855 337.352 141.497 316.134 316.127C304.929 408.343 235.991 441.53 221.699 533.375C202.263 658.279 268.857 720.722 285.451 844.279C309.806 1025.63 197.816 1108.63 228.838 1288.38C294.036 1666.17 535.102 1680.85 539.44 2023.1C545.027 2463.92 727.687 2551.13 727.687 2551.13" stroke="url(#paint1_linear_1838_2392)"/>
<path opacity="0.8" d="M-509.113 279.689C-509.113 279.689 -290.196 486.072 -311.414 660.702C-322.619 752.918 -391.557 786.104 -405.849 877.949C-425.285 1002.85 -358.69 1065.3 -342.097 1188.85C-317.742 1370.2 -429.732 1453.2 -398.71 1632.96C-333.512 2010.74 -92.446 2025.43 -88.1078 2367.68C-82.5204 2808.49 100.139 2895.71 100.139 2895.71" stroke="url(#paint2_linear_1838_2392)"/>
<path opacity="0.8" d="M-487.767 267.288C-487.767 267.288 -268.846 473.665 -290.134 648.381C-301.376 740.643 -370.351 773.874 -384.681 865.765C-404.17 990.733 -337.574 1053.17 -321.019 1176.78C-296.721 1358.19 -408.781 1441.28 -377.813 1621.1C-312.727 1999.02 -71.5792 2013.61 -67.3629 2356.01C-61.9325 2797.01 120.761 2884.19 120.761 2884.19" stroke="url(#paint3_linear_1838_2392)"/>
<path opacity="0.8" d="M-466.385 256.536C-466.385 256.536 -247.576 462.812 -268.828 637.408C-280.05 729.606 -348.977 762.803 -363.285 854.631C-382.744 979.513 -316.183 1041.92 -299.622 1165.45C-275.315 1346.75 -387.293 1429.76 -356.32 1609.46C-291.226 1987.14 -50.2296 2001.76 -45.9703 2343.93C-40.4844 2784.64 142.104 2871.79 142.104 2871.79" stroke="url(#paint4_linear_1838_2392)"/>
<path opacity="0.8" d="M-445.766 245.02C-445.766 245.02 -226.849 451.403 -248.068 626.033C-259.272 718.249 -328.21 751.435 -342.502 843.28C-361.938 968.184 -295.344 1030.63 -278.75 1154.18C-254.396 1335.53 -366.386 1418.53 -335.363 1598.29C-270.165 1976.07 -29.0993 1990.76 -24.7612 2333.01C-19.1737 2773.82 163.485 2861.04 163.485 2861.04" stroke="url(#paint5_linear_1838_2392)"/>
<path opacity="0.8" d="M-425.147 233.501C-425.147 233.501 -206.23 439.884 -227.448 614.514C-238.653 706.73 -307.591 739.916 -321.883 831.761C-341.319 956.666 -274.725 1019.11 -258.131 1142.67C-233.776 1324.01 -345.766 1407.01 -314.744 1586.77C-249.546 1964.55 -8.48021 1979.24 -4.14202 2321.49C1.44545 2762.3 184.105 2849.52 184.105 2849.52" stroke="url(#paint6_linear_1838_2392)"/>
<path opacity="0.8" d="M-404.528 221.985C-404.528 221.985 -185.611 428.368 -206.829 602.998C-218.034 695.214 -286.972 728.4 -301.264 820.245C-320.7 945.149 -254.106 1007.59 -237.512 1131.15C-213.157 1312.5 -325.147 1395.5 -294.125 1575.25C-228.927 1953.04 12.1389 1967.72 16.4771 2309.97C22.0646 2750.79 204.724 2838 204.724 2838" stroke="url(#paint7_linear_1838_2392)"/>
<path opacity="0.8" d="M-383.146 211.234C-383.146 211.234 -164.337 417.509 -185.588 592.105C-196.811 684.303 -265.737 717.501 -280.046 809.329C-299.505 934.21 -232.943 996.62 -216.383 1120.14C-192.076 1301.44 -304.054 1384.46 -273.081 1564.16C-207.987 1941.84 33.0096 1956.46 37.269 2298.63C42.7548 2739.34 225.344 2826.49 225.344 2826.49" stroke="url(#paint8_linear_1838_2392)"/>
<path opacity="0.8" d="M-362.526 199.716C-362.526 199.716 -143.609 406.099 -164.827 580.729C-176.032 672.945 -244.97 706.131 -259.262 797.976C-278.698 922.881 -212.104 985.323 -195.51 1108.88C-171.155 1290.23 -283.145 1373.23 -252.123 1552.98C-186.925 1930.77 54.1409 1945.45 58.4791 2287.71C64.0665 2728.52 246.726 2815.74 246.726 2815.74" stroke="url(#paint9_linear_1838_2392)"/>
<path opacity="0.8" d="M-341.18 187.316C-341.18 187.316 -122.259 393.693 -143.548 568.409C-154.789 660.67 -223.764 693.901 -238.095 785.793C-257.583 910.761 -190.987 973.201 -174.432 1096.81C-150.134 1278.22 -262.194 1361.31 -231.226 1541.13C-166.14 1919.05 75.0077 1933.64 79.224 2276.04C84.6544 2717.04 267.348 2804.21 267.348 2804.21" stroke="url(#paint10_linear_1838_2392)"/>
<path opacity="0.8" d="M-320.561 175.798C-320.561 175.798 -101.644 382.181 -122.863 556.811C-134.067 649.027 -203.005 682.213 -217.297 774.058C-236.733 898.963 -170.139 961.405 -153.545 1084.96C-129.19 1266.31 -241.18 1349.31 -210.158 1529.07C-144.96 1906.85 96.1057 1921.54 100.444 2263.79C106.031 2704.6 288.69 2791.82 288.69 2791.82" stroke="url(#paint11_linear_1838_2392)"/>
<path opacity="0.8" d="M-299.942 164.28C-299.942 164.28 -81.0252 370.663 -102.243 545.293C-113.448 637.509 -182.386 670.696 -196.678 762.541C-216.114 887.445 -149.52 949.888 -132.926 1073.45C-108.571 1254.79 -220.561 1337.79 -189.539 1517.55C-124.341 1895.33 116.725 1910.02 121.063 2252.27C126.651 2693.08 309.31 2780.3 309.31 2780.3" stroke="url(#paint12_linear_1838_2392)"/>
<path opacity="0.8" d="M-278.56 153.529C-278.56 153.529 -59.7506 359.805 -81.0026 534.401C-92.225 626.599 -161.152 659.796 -175.46 751.625C-194.919 876.506 -128.358 938.916 -111.797 1062.44C-87.4898 1243.74 -199.468 1326.75 -168.495 1506.46C-103.401 1884.14 137.596 1898.75 141.855 2240.93C147.341 2681.64 329.93 2768.78 329.93 2768.78" stroke="url(#paint13_linear_1838_2392)"/>
<path opacity="0.8" d="M-257.941 142.012C-257.941 142.012 -39.0243 348.395 -60.2424 523.025C-71.447 615.241 -140.385 648.427 -154.677 740.272C-174.113 865.177 -107.519 927.619 -90.925 1051.18C-66.5704 1232.52 -178.56 1315.52 -147.538 1495.28C-82.3401 1873.06 158.726 1887.75 163.064 2230C168.652 2670.81 351.311 2758.03 351.311 2758.03" stroke="url(#paint14_linear_1838_2392)"/>
<path opacity="0.8" d="M-237.321 130.494C-237.321 130.494 -18.4041 336.877 -39.6223 511.507C-50.8269 603.723 -119.765 636.909 -134.057 728.755C-153.493 853.659 -86.8985 916.101 -70.3049 1039.66C-45.9503 1221.01 -157.94 1304.01 -126.918 1483.76C-61.72 1861.55 179.346 1876.23 183.684 2218.48C189.272 2659.3 371.931 2746.51 371.931 2746.51" stroke="url(#paint15_linear_1838_2392)"/>
<path opacity="0.8" d="M-216.702 118.977C-216.702 118.977 2.21499 325.36 -19.0032 499.99C-30.2077 592.206 -99.1458 625.392 -113.438 717.237C-132.874 842.142 -66.2794 904.584 -49.6858 1028.14C-25.3311 1209.49 -137.321 1292.49 -106.299 1472.24C-41.1009 1850.03 199.965 1864.71 204.303 2206.97C209.891 2647.78 392.55 2735 392.55 2735" stroke="url(#paint16_linear_1838_2392)"/>
<path opacity="0.8" d="M-195.356 106.577C-195.356 106.577 23.5607 312.96 2.34254 487.59C-8.86202 579.806 -77.8001 612.992 -92.0919 704.838C-111.528 829.742 -44.9337 892.184 -28.3401 1015.74C-3.98542 1197.09 -115.975 1280.09 -84.953 1459.85C-19.7552 1837.63 221.311 1852.32 225.649 2194.57C231.236 2635.38 413.896 2722.6 413.896 2722.6" stroke="url(#paint17_linear_1838_2392)"/>
<path opacity="0.8" d="M-173.975 95.8254C-173.975 95.8254 44.8343 302.101 23.5824 476.697C12.36 568.895 -56.5666 602.092 -70.8753 693.92C-90.3343 818.802 -23.7726 881.211 -7.21161 1004.74C17.0952 1186.04 -94.8828 1269.05 -63.9098 1448.75C1.18435 1826.43 242.181 1841.05 246.44 2183.22C251.926 2623.93 434.515 2711.08 434.515 2711.08" stroke="url(#paint18_linear_1838_2392)"/>
<path opacity="0.8" d="M-153.356 84.3078C-153.356 84.3078 65.5607 290.691 44.3425 465.321C33.138 557.537 -35.8001 590.723 -50.0919 682.568C-69.5279 807.473 -2.93365 869.915 13.6599 993.473C38.0146 1174.82 -73.9754 1257.82 -42.953 1437.58C22.2448 1815.36 263.311 1830.05 267.649 2172.3C273.236 2613.11 455.896 2700.33 455.896 2700.33" stroke="url(#paint19_linear_1838_2392)"/>
<path opacity="0.8" d="M-132.736 72.7902C-132.736 72.7902 86.1808 279.173 64.9627 453.803C53.7581 546.019 -15.18 579.205 -29.4717 671.051C-48.9078 795.955 17.6865 858.397 34.2801 981.955C58.6347 1163.3 -53.3553 1246.3 -22.3329 1426.06C42.8649 1803.84 283.931 1818.53 288.269 2160.78C293.857 2601.59 476.516 2688.81 476.516 2688.81" stroke="url(#paint20_linear_1838_2392)"/>
<path opacity="0.8" d="M-112.117 61.2736C-112.117 61.2736 106.8 267.657 85.5818 442.287C74.3772 534.503 5.43918 567.689 -8.8526 659.534C-28.2887 784.438 38.3056 846.881 54.8992 970.438C79.2538 1151.79 -32.7361 1234.79 -1.71378 1414.54C63.4841 1792.32 304.55 1807.01 308.888 2149.26C314.476 2590.08 497.135 2677.29 497.135 2677.29" stroke="url(#paint21_linear_1838_2392)"/>
<path opacity="0.8" d="M-90.7348 50.5217C-90.7348 50.5217 128.075 256.797 106.823 431.393C95.6002 523.591 26.6737 556.789 12.365 648.617C-7.09408 773.498 59.4677 835.908 76.0286 959.433C100.335 1140.73 -11.6425 1223.74 19.3305 1403.45C84.4246 1781.13 325.421 1795.75 329.68 2137.92C335.166 2578.63 517.755 2665.78 517.755 2665.78" stroke="url(#paint22_linear_1838_2392)"/>
<path opacity="0.8" d="M-70.1157 39.0041C-70.1157 39.0041 148.801 245.387 127.583 420.017C116.378 512.233 47.4402 545.419 33.1484 637.264C13.7123 762.169 80.3066 824.611 96.9002 948.169C121.255 1129.52 9.26486 1212.52 40.2872 1392.27C105.485 1770.06 346.551 1784.74 350.889 2126.99C356.477 2567.81 539.136 2655.02 539.136 2655.02" stroke="url(#paint23_linear_1838_2392)"/>
<path opacity="0.8" d="M-48.77 26.6047C-48.77 26.6047 170.147 232.988 148.928 407.618C137.724 499.834 68.7859 533.02 54.4941 624.865C35.058 749.769 101.652 812.212 118.246 935.769C142.601 1117.12 30.6106 1200.12 61.6329 1379.87C126.831 1757.66 367.897 1772.34 372.235 2114.59C377.822 2555.41 560.481 2642.62 560.481 2642.62" stroke="url(#paint24_linear_1838_2392)"/>
<path opacity="0.8" d="M-28.1508 15.0871C-28.1508 15.0871 190.766 221.47 169.548 396.1C158.343 488.316 89.405 521.502 75.1132 613.347C55.6772 738.252 122.271 800.694 138.865 924.252C163.22 1105.6 51.2297 1188.6 82.252 1368.36C147.45 1746.14 388.516 1760.83 392.854 2103.08C398.442 2543.89 581.101 2631.11 581.101 2631.11" stroke="url(#paint25_linear_1838_2392)"/>
<path opacity="0.8" d="M-7.53171 3.56953C-7.53171 3.56953 211.385 209.953 190.167 384.583C178.962 476.799 110.024 509.985 95.7324 601.83C76.2963 726.734 142.891 789.177 159.484 912.734C183.839 1094.08 71.8488 1177.08 102.871 1356.84C168.069 1734.62 409.135 1749.31 413.473 2091.56C419.061 2532.37 601.72 2619.59 601.72 2619.59" stroke="url(#paint26_linear_1838_2392)"/>
<path opacity="0.8" d="M13.8501 -7.18242C13.8501 -7.18242 232.66 199.093 211.408 373.689C200.185 465.887 131.259 499.085 116.95 590.913C97.4909 715.794 164.053 778.204 180.614 901.728C204.92 1083.03 92.9424 1166.04 123.915 1345.75C189.01 1723.43 430.006 1738.04 434.265 2080.21C439.751 2520.92 622.34 2608.07 622.34 2608.07" stroke="url(#paint27_linear_1838_2392)"/>
<path opacity="0.8" d="M34.4693 -18.7C34.4693 -18.7 253.386 187.683 232.168 362.313C220.963 454.529 152.025 487.715 137.733 579.56C118.297 704.465 184.892 766.907 201.485 890.465C225.84 1071.81 113.85 1154.81 144.872 1334.57C210.07 1712.35 451.136 1727.04 455.474 2069.29C461.062 2510.1 643.721 2597.32 643.721 2597.32" stroke="url(#paint28_linear_1838_2392)"/>
<path opacity="0.8" d="M55.0884 -30.2166C55.0884 -30.2166 274.005 176.166 252.787 350.796C241.582 443.012 172.644 476.199 158.352 568.044C138.916 692.948 205.511 755.39 222.104 878.948C246.459 1060.3 134.469 1143.3 165.491 1323.05C230.689 1700.83 471.755 1715.52 476.093 2057.77C481.681 2498.59 664.34 2585.8 664.34 2585.8" stroke="url(#paint29_linear_1838_2392)"/>
<path opacity="0.8" d="M75.7085 -41.7352C75.7085 -41.7352 294.625 164.648 273.407 339.278C262.202 431.494 193.264 464.68 178.973 556.525C159.537 681.43 226.131 743.872 242.724 867.43C267.079 1048.78 155.089 1131.78 186.111 1311.53C251.309 1689.32 492.375 1704 496.713 2046.25C502.301 2487.07 684.96 2574.28 684.96 2574.28" stroke="url(#paint30_linear_1838_2392)"/>
<path opacity="0.8" d="M97.0542 -54.1336C97.0542 -54.1336 315.971 152.249 294.753 326.879C283.548 419.095 214.61 452.282 200.318 544.127C180.882 669.031 247.477 731.473 264.07 855.031C288.425 1036.38 176.435 1119.38 207.457 1299.13C272.655 1676.92 513.721 1691.6 518.059 2033.86C523.647 2474.67 706.306 2561.89 706.306 2561.89" stroke="url(#paint31_linear_1838_2392)"/>
</g>
</g>
<defs>
<linearGradient id="paint0_linear_1838_2392" x1="226.072" y1="1051.08" x2="-780.227" y2="2051.71" gradientUnits="userSpaceOnUse">
<stop stop-color="#98F9FF" stop-opacity="0.74"/>
<stop offset="0.942708" stop-color="#4A8CC7" stop-opacity="0.56"/>
</linearGradient>
<linearGradient id="paint1_linear_1838_2392" x1="874.239" y1="694.989" x2="-132.06" y2="1695.62" gradientUnits="userSpaceOnUse">
<stop stop-color="#98F9FF" stop-opacity="0.74"/>
<stop offset="0.942708" stop-color="#4A8CC7" stop-opacity="0.56"/>
</linearGradient>
<linearGradient id="paint2_linear_1838_2392" x1="246.691" y1="1039.56" x2="-759.608" y2="2040.2" gradientUnits="userSpaceOnUse">
<stop stop-color="#98F9FF" stop-opacity="0.74"/>
<stop offset="0.942708" stop-color="#4A8CC7" stop-opacity="0.56"/>
</linearGradient>
<linearGradient id="paint3_linear_1838_2392" x1="268.037" y1="1027.16" x2="-739.069" y2="2028.6" gradientUnits="userSpaceOnUse">
<stop stop-color="#98F9FF" stop-opacity="0.74"/>
<stop offset="0.942708" stop-color="#4A8CC7" stop-opacity="0.56"/>
</linearGradient>
<linearGradient id="paint4_linear_1838_2392" x1="289.038" y1="1016.03" x2="-717.262" y2="2016.66" gradientUnits="userSpaceOnUse">
<stop stop-color="#98F9FF" stop-opacity="0.74"/>
<stop offset="0.942708" stop-color="#4A8CC7" stop-opacity="0.56"/>
</linearGradient>
<linearGradient id="paint5_linear_1838_2392" x1="310.038" y1="1004.89" x2="-696.262" y2="2005.53" gradientUnits="userSpaceOnUse">
<stop stop-color="#98F9FF" stop-opacity="0.74"/>
<stop offset="0.942708" stop-color="#4A8CC7" stop-opacity="0.56"/>
</linearGradient>
<linearGradient id="paint6_linear_1838_2392" x1="330.657" y1="993.375" x2="-675.642" y2="1994.01" gradientUnits="userSpaceOnUse">
<stop stop-color="#98F9FF" stop-opacity="0.74"/>
<stop offset="0.942708" stop-color="#4A8CC7" stop-opacity="0.56"/>
</linearGradient>
<linearGradient id="paint7_linear_1838_2392" x1="351.276" y1="981.859" x2="-655.023" y2="1982.49" gradientUnits="userSpaceOnUse">
<stop stop-color="#98F9FF" stop-opacity="0.74"/>
<stop offset="0.942708" stop-color="#4A8CC7" stop-opacity="0.56"/>
</linearGradient>
<linearGradient id="paint8_linear_1838_2392" x1="372.277" y1="970.725" x2="-634.022" y2="1971.36" gradientUnits="userSpaceOnUse">
<stop stop-color="#98F9FF" stop-opacity="0.74"/>
<stop offset="0.942708" stop-color="#4A8CC7" stop-opacity="0.56"/>
</linearGradient>
<linearGradient id="paint9_linear_1838_2392" x1="393.278" y1="959.59" x2="-613.021" y2="1960.22" gradientUnits="userSpaceOnUse">
<stop stop-color="#98F9FF" stop-opacity="0.74"/>
<stop offset="0.942708" stop-color="#4A8CC7" stop-opacity="0.56"/>
</linearGradient>
<linearGradient id="paint10_linear_1838_2392" x1="414.624" y1="947.19" x2="-592.482" y2="1948.63" gradientUnits="userSpaceOnUse">
<stop stop-color="#98F9FF" stop-opacity="0.74"/>
<stop offset="0.942708" stop-color="#4A8CC7" stop-opacity="0.56"/>
</linearGradient>
<linearGradient id="paint11_linear_1838_2392" x1="435.243" y1="935.672" x2="-571.056" y2="1936.31" gradientUnits="userSpaceOnUse">
<stop stop-color="#98F9FF" stop-opacity="0.74"/>
<stop offset="0.942708" stop-color="#4A8CC7" stop-opacity="0.56"/>
</linearGradient>
<linearGradient id="paint12_linear_1838_2392" x1="455.862" y1="924.155" x2="-550.437" y2="1924.79" gradientUnits="userSpaceOnUse">
<stop stop-color="#98F9FF" stop-opacity="0.74"/>
<stop offset="0.942708" stop-color="#4A8CC7" stop-opacity="0.56"/>
</linearGradient>
<linearGradient id="paint13_linear_1838_2392" x1="476.863" y1="913.021" x2="-529.436" y2="1913.65" gradientUnits="userSpaceOnUse">
<stop stop-color="#98F9FF" stop-opacity="0.74"/>
<stop offset="0.942708" stop-color="#4A8CC7" stop-opacity="0.56"/>
</linearGradient>
<linearGradient id="paint14_linear_1838_2392" x1="497.863" y1="901.886" x2="-508.436" y2="1902.52" gradientUnits="userSpaceOnUse">
<stop stop-color="#98F9FF" stop-opacity="0.74"/>
<stop offset="0.942708" stop-color="#4A8CC7" stop-opacity="0.56"/>
</linearGradient>
<linearGradient id="paint15_linear_1838_2392" x1="518.483" y1="890.369" x2="-487.816" y2="1891" gradientUnits="userSpaceOnUse">
<stop stop-color="#98F9FF" stop-opacity="0.74"/>
<stop offset="0.942708" stop-color="#4A8CC7" stop-opacity="0.56"/>
</linearGradient>
<linearGradient id="paint16_linear_1838_2392" x1="539.103" y1="878.851" x2="-467.197" y2="1879.49" gradientUnits="userSpaceOnUse">
<stop stop-color="#98F9FF" stop-opacity="0.74"/>
<stop offset="0.942708" stop-color="#4A8CC7" stop-opacity="0.56"/>
</linearGradient>
<linearGradient id="paint17_linear_1838_2392" x1="560.448" y1="866.452" x2="-445.851" y2="1867.09" gradientUnits="userSpaceOnUse">
<stop stop-color="#98F9FF" stop-opacity="0.74"/>
<stop offset="0.942708" stop-color="#4A8CC7" stop-opacity="0.56"/>
</linearGradient>
<linearGradient id="paint18_linear_1838_2392" x1="581.448" y1="855.317" x2="-424.851" y2="1855.95" gradientUnits="userSpaceOnUse">
<stop stop-color="#98F9FF" stop-opacity="0.74"/>
<stop offset="0.942708" stop-color="#4A8CC7" stop-opacity="0.56"/>
</linearGradient>
<linearGradient id="paint19_linear_1838_2392" x1="602.448" y1="844.182" x2="-403.851" y2="1844.82" gradientUnits="userSpaceOnUse">
<stop stop-color="#98F9FF" stop-opacity="0.74"/>
<stop offset="0.942708" stop-color="#4A8CC7" stop-opacity="0.56"/>
</linearGradient>
<linearGradient id="paint20_linear_1838_2392" x1="623.068" y1="832.665" x2="-383.231" y2="1833.3" gradientUnits="userSpaceOnUse">
<stop stop-color="#98F9FF" stop-opacity="0.74"/>
<stop offset="0.942708" stop-color="#4A8CC7" stop-opacity="0.56"/>
</linearGradient>
<linearGradient id="paint21_linear_1838_2392" x1="643.688" y1="821.148" x2="-362.612" y2="1821.78" gradientUnits="userSpaceOnUse">
<stop stop-color="#98F9FF" stop-opacity="0.74"/>
<stop offset="0.942708" stop-color="#4A8CC7" stop-opacity="0.56"/>
</linearGradient>
<linearGradient id="paint22_linear_1838_2392" x1="664.689" y1="810.013" x2="-341.611" y2="1810.65" gradientUnits="userSpaceOnUse">
<stop stop-color="#98F9FF" stop-opacity="0.74"/>
<stop offset="0.942708" stop-color="#4A8CC7" stop-opacity="0.56"/>
</linearGradient>
<linearGradient id="paint23_linear_1838_2392" x1="685.689" y1="798.878" x2="-320.611" y2="1799.51" gradientUnits="userSpaceOnUse">
<stop stop-color="#98F9FF" stop-opacity="0.74"/>
<stop offset="0.942708" stop-color="#4A8CC7" stop-opacity="0.56"/>
</linearGradient>
<linearGradient id="paint24_linear_1838_2392" x1="707.034" y1="786.479" x2="-299.265" y2="1787.11" gradientUnits="userSpaceOnUse">
<stop stop-color="#98F9FF" stop-opacity="0.74"/>
<stop offset="0.942708" stop-color="#4A8CC7" stop-opacity="0.56"/>
</linearGradient>
<linearGradient id="paint25_linear_1838_2392" x1="727.653" y1="774.961" x2="-278.646" y2="1775.6" gradientUnits="userSpaceOnUse">
<stop stop-color="#98F9FF" stop-opacity="0.74"/>
<stop offset="0.942708" stop-color="#4A8CC7" stop-opacity="0.56"/>
</linearGradient>
<linearGradient id="paint26_linear_1838_2392" x1="748.273" y1="763.444" x2="-258.027" y2="1764.08" gradientUnits="userSpaceOnUse">
<stop stop-color="#98F9FF" stop-opacity="0.74"/>
<stop offset="0.942708" stop-color="#4A8CC7" stop-opacity="0.56"/>
</linearGradient>
<linearGradient id="paint27_linear_1838_2392" x1="769.273" y1="752.309" x2="-237.026" y2="1752.94" gradientUnits="userSpaceOnUse">
<stop stop-color="#98F9FF" stop-opacity="0.74"/>
<stop offset="0.942708" stop-color="#4A8CC7" stop-opacity="0.56"/>
</linearGradient>
<linearGradient id="paint28_linear_1838_2392" x1="790.274" y1="741.174" x2="-216.026" y2="1741.81" gradientUnits="userSpaceOnUse">
<stop stop-color="#98F9FF" stop-opacity="0.74"/>
<stop offset="0.942708" stop-color="#4A8CC7" stop-opacity="0.56"/>
</linearGradient>
<linearGradient id="paint29_linear_1838_2392" x1="810.893" y1="729.658" x2="-195.407" y2="1730.29" gradientUnits="userSpaceOnUse">
<stop stop-color="#98F9FF" stop-opacity="0.74"/>
<stop offset="0.942708" stop-color="#4A8CC7" stop-opacity="0.56"/>
</linearGradient>
<linearGradient id="paint30_linear_1838_2392" x1="831.513" y1="718.139" x2="-174.787" y2="1718.77" gradientUnits="userSpaceOnUse">
<stop stop-color="#98F9FF" stop-opacity="0.74"/>
<stop offset="0.942708" stop-color="#4A8CC7" stop-opacity="0.56"/>
</linearGradient>
<linearGradient id="paint31_linear_1838_2392" x1="852.858" y1="705.741" x2="-153.441" y2="1706.37" gradientUnits="userSpaceOnUse">
<stop stop-color="#98F9FF" stop-opacity="0.74"/>
<stop offset="0.942708" stop-color="#4A8CC7" stop-opacity="0.56"/>
</linearGradient>
</defs>
</svg>
